<svg width="601" height="676" viewBox="0 0 601 676" fill="none" xmlns="http://www.w3.org/2000/svg">
<mask id="mask0" mask-type="alpha" maskUnits="userSpaceOnUse" x="0" y="0" width="601" height="676">
<rect width="601" height="676" fill="url(#paint0_radial)"/>
</mask>
<g mask="url(#mask0)">
<rect opacity="0.15" x="2.15" y="1.15" width="35.7" height="55.7" stroke="white" stroke-width="0.3"/>
<rect opacity="0.15" x="2.15" y="57.15" width="35.7" height="55.7" stroke="white" stroke-width="0.3"/>
<rect opacity="0.15" x="2.15" y="113.15" width="35.7" height="56.7" stroke="white" stroke-width="0.3"/>
<rect opacity="0.15" x="2.15" y="170.15" width="35.7" height="55.7" stroke="white" stroke-width="0.3"/>
<rect opacity="0.15" x="2.15" y="226.15" width="35.7" height="55.7" stroke="white" stroke-width="0.3"/>
<rect opacity="0.15" x="2.15" y="282.15" width="35.7" height="55.7" stroke="white" stroke-width="0.3"/>
<rect opacity="0.15" x="2.15" y="338.15" width="35.7" height="55.7" stroke="white" stroke-width="0.3"/>
<rect opacity="0.15" x="2.15" y="394.15" width="35.7" height="55.7" stroke="white" stroke-width="0.3"/>
<rect opacity="0.15" x="2.15" y="450.15" width="35.7" height="56.7" stroke="white" stroke-width="0.3"/>
<rect opacity="0.15" x="2.15" y="507.15" width="35.7" height="55.7" stroke="white" stroke-width="0.3"/>
<rect opacity="0.15" x="2.15" y="563.15" width="35.7" height="55.7" stroke="white" stroke-width="0.3"/>
<rect opacity="0.15" x="2.15" y="619.15" width="35.7" height="55.7" stroke="white" stroke-width="0.3"/>
<rect opacity="0.15" x="38.1496" y="1.15" width="34.7" height="55.8667" stroke="white" stroke-width="0.3"/>
<rect opacity="0.15" x="38.1496" y="57.3166" width="34.7" height="55.8667" stroke="white" stroke-width="0.3"/>
<rect opacity="0.15" x="38.1496" y="113.483" width="34.7" height="55.8667" stroke="white" stroke-width="0.3"/>
<rect opacity="0.15" x="38.1496" y="169.65" width="34.7" height="55.8667" stroke="white" stroke-width="0.3"/>
<rect opacity="0.15" x="38.1496" y="225.817" width="34.7" height="55.8667" stroke="white" stroke-width="0.3"/>
<rect opacity="0.15" x="38.1496" y="281.983" width="34.7" height="55.8667" stroke="white" stroke-width="0.3"/>
<rect opacity="0.15" x="38.1496" y="338.15" width="34.7" height="55.8667" stroke="white" stroke-width="0.3"/>
<rect opacity="0.15" x="38.1496" y="394.317" width="34.7" height="55.8667" stroke="white" stroke-width="0.3"/>
<rect opacity="0.15" x="38.1496" y="450.483" width="34.7" height="55.8667" stroke="white" stroke-width="0.3"/>
<rect opacity="0.15" x="38.1496" y="506.65" width="34.7" height="55.8667" stroke="white" stroke-width="0.3"/>
<rect opacity="0.15" x="38.1496" y="562.817" width="34.7" height="55.8667" stroke="white" stroke-width="0.3"/>
<rect opacity="0.15" x="38.1496" y="618.983" width="34.7" height="55.8667" stroke="white" stroke-width="0.3"/>
<rect opacity="0.15" x="73.1502" y="1.15" width="34.7" height="55.8667" stroke="white" stroke-width="0.3"/>
<rect opacity="0.15" x="73.1502" y="57.3166" width="34.7" height="55.8667" stroke="white" stroke-width="0.3"/>
<rect opacity="0.15" x="73.1502" y="113.483" width="34.7" height="55.8667" stroke="white" stroke-width="0.3"/>
<rect opacity="0.15" x="73.1502" y="169.65" width="34.7" height="55.8667" stroke="white" stroke-width="0.3"/>
<rect opacity="0.15" x="73.1502" y="225.817" width="34.7" height="55.8667" stroke="white" stroke-width="0.3"/>
<rect opacity="0.15" x="73.1502" y="281.983" width="34.7" height="55.8667" stroke="white" stroke-width="0.3"/>
<rect opacity="0.15" x="73.1502" y="338.15" width="34.7" height="55.8667" stroke="white" stroke-width="0.3"/>
<rect opacity="0.15" x="73.1502" y="394.317" width="34.7" height="55.8667" stroke="white" stroke-width="0.3"/>
<rect opacity="0.15" x="73.1502" y="450.483" width="34.7" height="55.8667" stroke="white" stroke-width="0.3"/>
<rect opacity="0.15" x="73.1502" y="506.65" width="34.7" height="55.8667" stroke="white" stroke-width="0.3"/>
<rect opacity="0.15" x="73.1502" y="562.817" width="34.7" height="55.8667" stroke="white" stroke-width="0.3"/>
<rect opacity="0.15" x="73.1502" y="618.983" width="34.7" height="55.8667" stroke="white" stroke-width="0.3"/>
<rect opacity="0.15" x="108.15" y="1.15" width="34.7" height="55.8667" stroke="white" stroke-width="0.3"/>
<rect opacity="0.15" x="108.15" y="57.3166" width="34.7" height="55.8667" stroke="white" stroke-width="0.3"/>
<rect opacity="0.15" x="108.15" y="113.483" width="34.7" height="55.8667" stroke="white" stroke-width="0.3"/>
<rect opacity="0.15" x="108.15" y="169.65" width="34.7" height="55.8667" stroke="white" stroke-width="0.3"/>
<rect opacity="0.15" x="108.15" y="225.817" width="34.7" height="55.8667" stroke="white" stroke-width="0.3"/>
<rect opacity="0.15" x="108.15" y="281.983" width="34.7" height="55.8667" stroke="white" stroke-width="0.3"/>
<rect opacity="0.15" x="108.15" y="338.15" width="34.7" height="55.8667" stroke="white" stroke-width="0.3"/>
<rect opacity="0.15" x="108.15" y="394.317" width="34.7" height="55.8667" stroke="white" stroke-width="0.3"/>
<rect opacity="0.15" x="108.15" y="450.483" width="34.7" height="55.8667" stroke="white" stroke-width="0.3"/>
<rect opacity="0.15" x="108.15" y="506.65" width="34.7" height="55.8667" stroke="white" stroke-width="0.3"/>
<rect opacity="0.15" x="108.15" y="562.817" width="34.7" height="55.8667" stroke="white" stroke-width="0.3"/>
<rect opacity="0.15" x="108.15" y="618.983" width="34.7" height="55.8667" stroke="white" stroke-width="0.3"/>
<rect opacity="0.15" x="143.15" y="1.15" width="34.7" height="55.8667" stroke="white" stroke-width="0.3"/>
<rect opacity="0.15" x="143.15" y="57.3166" width="34.7" height="55.8667" stroke="white" stroke-width="0.3"/>
<rect opacity="0.15" x="143.15" y="113.483" width="34.7" height="55.8667" stroke="white" stroke-width="0.3"/>
<rect opacity="0.15" x="143.15" y="169.65" width="34.7" height="55.8667" stroke="white" stroke-width="0.3"/>
<rect opacity="0.15" x="143.15" y="225.817" width="34.7" height="55.8667" stroke="white" stroke-width="0.3"/>
<rect opacity="0.15" x="143.15" y="281.983" width="34.7" height="55.8667" stroke="white" stroke-width="0.3"/>
<rect opacity="0.15" x="143.15" y="338.15" width="34.7" height="55.8667" stroke="white" stroke-width="0.3"/>
<rect opacity="0.15" x="143.15" y="394.317" width="34.7" height="55.8667" stroke="white" stroke-width="0.3"/>
<rect opacity="0.15" x="143.15" y="450.483" width="34.7" height="55.8667" stroke="white" stroke-width="0.3"/>
<rect opacity="0.15" x="143.15" y="506.65" width="34.7" height="55.8667" stroke="white" stroke-width="0.3"/>
<rect opacity="0.15" x="143.15" y="562.817" width="34.7" height="55.8667" stroke="white" stroke-width="0.3"/>
<rect opacity="0.15" x="143.15" y="618.983" width="34.7" height="55.8667" stroke="white" stroke-width="0.3"/>
<rect opacity="0.15" x="178.15" y="1.15" width="34.7" height="55.8667" stroke="white" stroke-width="0.3"/>
<rect opacity="0.15" x="178.15" y="57.3166" width="34.7" height="55.8667" stroke="white" stroke-width="0.3"/>
<rect opacity="0.15" x="178.15" y="113.483" width="34.7" height="55.8667" stroke="white" stroke-width="0.3"/>
<rect opacity="0.15" x="178.15" y="169.65" width="34.7" height="55.8667" stroke="white" stroke-width="0.3"/>
<rect opacity="0.15" x="178.15" y="225.817" width="34.7" height="55.8667" stroke="white" stroke-width="0.3"/>
<rect opacity="0.15" x="178.15" y="281.983" width="34.7" height="55.8667" stroke="white" stroke-width="0.3"/>
<rect opacity="0.15" x="178.15" y="338.15" width="34.7" height="55.8667" stroke="white" stroke-width="0.3"/>
<rect opacity="0.15" x="178.15" y="394.317" width="34.7" height="55.8667" stroke="white" stroke-width="0.3"/>
<rect opacity="0.15" x="178.15" y="450.483" width="34.7" height="55.8667" stroke="white" stroke-width="0.3"/>
<rect opacity="0.15" x="178.15" y="506.65" width="34.7" height="55.8667" stroke="white" stroke-width="0.3"/>
<rect opacity="0.15" x="178.15" y="562.817" width="34.7" height="55.8667" stroke="white" stroke-width="0.3"/>
<rect opacity="0.15" x="178.15" y="618.983" width="34.7" height="55.8667" stroke="white" stroke-width="0.3"/>
<rect opacity="0.15" x="213.15" y="1.15" width="34.7" height="55.8667" stroke="white" stroke-width="0.3"/>
<rect opacity="0.15" x="213.15" y="57.3166" width="34.7" height="55.8667" stroke="white" stroke-width="0.3"/>
<rect opacity="0.15" x="213.15" y="113.483" width="34.7" height="55.8667" stroke="white" stroke-width="0.3"/>
<rect opacity="0.15" x="213.15" y="169.65" width="34.7" height="55.8667" stroke="white" stroke-width="0.3"/>
<rect opacity="0.15" x="213.15" y="225.817" width="34.7" height="55.8667" stroke="white" stroke-width="0.3"/>
<rect opacity="0.15" x="213.15" y="281.983" width="34.7" height="55.8667" stroke="white" stroke-width="0.3"/>
<rect opacity="0.15" x="213.15" y="338.15" width="34.7" height="55.8667" stroke="white" stroke-width="0.3"/>
<rect opacity="0.15" x="213.15" y="394.317" width="34.7" height="55.8667" stroke="white" stroke-width="0.3"/>
<rect opacity="0.15" x="213.15" y="450.483" width="34.7" height="55.8667" stroke="white" stroke-width="0.3"/>
<rect opacity="0.15" x="213.15" y="506.65" width="34.7" height="55.8667" stroke="white" stroke-width="0.3"/>
<rect opacity="0.15" x="213.15" y="562.817" width="34.7" height="55.8667" stroke="white" stroke-width="0.3"/>
<rect opacity="0.15" x="213.15" y="618.983" width="34.7" height="55.8667" stroke="white" stroke-width="0.3"/>
<rect opacity="0.15" x="248.149" y="1.15" width="34.7" height="55.8667" stroke="white" stroke-width="0.3"/>
<rect opacity="0.15" x="248.149" y="57.3166" width="34.7" height="55.8667" stroke="white" stroke-width="0.3"/>
<rect opacity="0.15" x="248.149" y="113.483" width="34.7" height="55.8667" stroke="white" stroke-width="0.3"/>
<rect opacity="0.15" x="248.149" y="169.65" width="34.7" height="55.8667" stroke="white" stroke-width="0.3"/>
<rect opacity="0.15" x="248.149" y="225.817" width="34.7" height="55.8667" stroke="white" stroke-width="0.3"/>
<rect opacity="0.15" x="248.149" y="281.983" width="34.7" height="55.8667" stroke="white" stroke-width="0.3"/>
<rect opacity="0.15" x="248.149" y="338.15" width="34.7" height="55.8667" stroke="white" stroke-width="0.3"/>
<rect opacity="0.15" x="248.149" y="394.317" width="34.7" height="55.8667" stroke="white" stroke-width="0.3"/>
<rect opacity="0.15" x="248.149" y="450.483" width="34.7" height="55.8667" stroke="white" stroke-width="0.3"/>
<rect opacity="0.15" x="248.149" y="506.65" width="34.7" height="55.8667" stroke="white" stroke-width="0.3"/>
<rect opacity="0.15" x="248.149" y="562.817" width="34.7" height="55.8667" stroke="white" stroke-width="0.3"/>
<rect opacity="0.15" x="248.149" y="618.983" width="34.7" height="55.8667" stroke="white" stroke-width="0.3"/>
<rect opacity="0.15" x="283.15" y="1.15" width="34.7" height="55.8667" stroke="white" stroke-width="0.3"/>
<rect opacity="0.15" x="283.15" y="57.3166" width="34.7" height="55.8667" stroke="white" stroke-width="0.3"/>
<rect opacity="0.15" x="283.15" y="113.483" width="34.7" height="55.8667" stroke="white" stroke-width="0.3"/>
<rect opacity="0.15" x="283.15" y="169.65" width="34.7" height="55.8667" stroke="white" stroke-width="0.3"/>
<rect opacity="0.15" x="283.15" y="225.817" width="34.7" height="55.8667" stroke="white" stroke-width="0.3"/>
<rect opacity="0.15" x="283.15" y="281.983" width="34.7" height="55.8667" stroke="white" stroke-width="0.3"/>
<rect opacity="0.15" x="283.15" y="338.15" width="34.7" height="55.8667" stroke="white" stroke-width="0.3"/>
<rect opacity="0.15" x="283.15" y="394.317" width="34.7" height="55.8667" stroke="white" stroke-width="0.3"/>
<rect opacity="0.15" x="283.15" y="450.483" width="34.7" height="55.8667" stroke="white" stroke-width="0.3"/>
<rect opacity="0.15" x="283.15" y="506.65" width="34.7" height="55.8667" stroke="white" stroke-width="0.3"/>
<rect opacity="0.15" x="283.15" y="562.817" width="34.7" height="55.8667" stroke="white" stroke-width="0.3"/>
<rect opacity="0.15" x="283.15" y="618.983" width="34.7" height="55.8667" stroke="white" stroke-width="0.3"/>
<rect opacity="0.15" x="318.15" y="1.15" width="34.7" height="55.8667" stroke="white" stroke-width="0.3"/>
<rect opacity="0.15" x="318.15" y="57.3166" width="34.7" height="55.8667" stroke="white" stroke-width="0.3"/>
<rect opacity="0.15" x="318.15" y="113.483" width="34.7" height="55.8667" stroke="white" stroke-width="0.3"/>
<rect opacity="0.15" x="318.15" y="169.65" width="34.7" height="55.8667" stroke="white" stroke-width="0.3"/>
<rect opacity="0.15" x="318.15" y="225.817" width="34.7" height="55.8667" stroke="white" stroke-width="0.3"/>
<rect opacity="0.15" x="318.15" y="281.983" width="34.7" height="55.8667" stroke="white" stroke-width="0.3"/>
<rect opacity="0.15" x="318.15" y="338.15" width="34.7" height="55.8667" stroke="white" stroke-width="0.3"/>
<rect opacity="0.15" x="318.15" y="394.317" width="34.7" height="55.8667" stroke="white" stroke-width="0.3"/>
<rect opacity="0.15" x="318.15" y="450.483" width="34.7" height="55.8667" stroke="white" stroke-width="0.3"/>
<rect opacity="0.15" x="318.15" y="506.65" width="34.7" height="55.8667" stroke="white" stroke-width="0.3"/>
<rect opacity="0.15" x="318.15" y="562.817" width="34.7" height="55.8667" stroke="white" stroke-width="0.3"/>
<rect opacity="0.15" x="318.15" y="618.983" width="34.7" height="55.8667" stroke="white" stroke-width="0.3"/>
<rect opacity="0.15" x="353.149" y="1.15" width="34.7" height="55.8667" stroke="white" stroke-width="0.3"/>
<rect opacity="0.15" x="353.149" y="57.3166" width="34.7" height="55.8667" stroke="white" stroke-width="0.3"/>
<rect opacity="0.15" x="353.149" y="113.483" width="34.7" height="55.8667" stroke="white" stroke-width="0.3"/>
<rect opacity="0.15" x="353.149" y="169.65" width="34.7" height="55.8667" stroke="white" stroke-width="0.3"/>
<rect opacity="0.15" x="353.149" y="225.817" width="34.7" height="55.8667" stroke="white" stroke-width="0.3"/>
<rect opacity="0.15" x="353.149" y="281.983" width="34.7" height="55.8667" stroke="white" stroke-width="0.3"/>
<rect opacity="0.15" x="353.149" y="338.15" width="34.7" height="55.8667" stroke="white" stroke-width="0.3"/>
<rect opacity="0.15" x="353.149" y="394.317" width="34.7" height="55.8667" stroke="white" stroke-width="0.3"/>
<rect opacity="0.15" x="353.149" y="450.483" width="34.7" height="55.8667" stroke="white" stroke-width="0.3"/>
<rect opacity="0.15" x="353.149" y="506.65" width="34.7" height="55.8667" stroke="white" stroke-width="0.3"/>
<rect opacity="0.15" x="353.149" y="562.817" width="34.7" height="55.8667" stroke="white" stroke-width="0.3"/>
<rect opacity="0.15" x="353.149" y="618.983" width="34.7" height="55.8667" stroke="white" stroke-width="0.3"/>
<rect opacity="0.15" x="388.15" y="1.15" width="34.7" height="55.8667" stroke="white" stroke-width="0.3"/>
<rect opacity="0.15" x="423.15" y="1.15" width="34.7" height="55.8667" stroke="white" stroke-width="0.3"/>
<rect opacity="0.15" x="458.15" y="1.15" width="34.7" height="55.8667" stroke="white" stroke-width="0.3"/>
<rect opacity="0.15" x="493.15" y="1.15" width="34.7" height="55.8667" stroke="white" stroke-width="0.3"/>
<rect opacity="0.15" x="528.15" y="1.15" width="34.7" height="55.8667" stroke="white" stroke-width="0.3"/>
<rect opacity="0.15" x="563.15" y="1.15" width="37.7" height="55.7" stroke="white" stroke-width="0.3"/>
<rect opacity="0.15" x="388.15" y="57.3166" width="34.7" height="55.8667" stroke="white" stroke-width="0.3"/>
<rect opacity="0.15" x="423.15" y="57.3166" width="34.7" height="55.8667" stroke="white" stroke-width="0.3"/>
<rect opacity="0.15" x="458.15" y="57.3166" width="34.7" height="55.8667" stroke="white" stroke-width="0.3"/>
<rect opacity="0.15" x="493.15" y="57.3166" width="34.7" height="55.8667" stroke="white" stroke-width="0.3"/>
<rect opacity="0.15" x="528.15" y="57.3166" width="34.7" height="55.8667" stroke="white" stroke-width="0.3"/>
<rect opacity="0.15" x="563.15" y="57.15" width="37.7" height="55.7" stroke="white" stroke-width="0.3"/>
<rect opacity="0.15" x="388.15" y="113.483" width="34.7" height="55.8667" stroke="white" stroke-width="0.3"/>
<rect opacity="0.15" x="423.15" y="113.483" width="34.7" height="55.8667" stroke="white" stroke-width="0.3"/>
<rect opacity="0.15" x="458.15" y="113.483" width="34.7" height="55.8667" stroke="white" stroke-width="0.3"/>
<rect opacity="0.15" x="493.15" y="113.483" width="34.7" height="55.8667" stroke="white" stroke-width="0.3"/>
<rect opacity="0.15" x="528.15" y="113.483" width="34.7" height="55.8667" stroke="white" stroke-width="0.3"/>
<rect opacity="0.15" x="563.15" y="113.15" width="37.7" height="56.7" stroke="white" stroke-width="0.3"/>
<rect opacity="0.15" x="388.15" y="169.65" width="34.7" height="55.8667" stroke="white" stroke-width="0.3"/>
<rect opacity="0.15" x="423.15" y="169.65" width="34.7" height="55.8667" stroke="white" stroke-width="0.3"/>
<rect opacity="0.15" x="458.15" y="169.65" width="34.7" height="55.8667" stroke="white" stroke-width="0.3"/>
<rect opacity="0.15" x="493.15" y="169.65" width="34.7" height="55.8667" stroke="white" stroke-width="0.3"/>
<rect opacity="0.15" x="528.15" y="169.65" width="34.7" height="55.8667" stroke="white" stroke-width="0.3"/>
<rect opacity="0.15" x="563.15" y="169.15" width="37.7" height="56.7" stroke="white" stroke-width="0.3"/>
<rect opacity="0.15" x="388.15" y="225.817" width="34.7" height="55.8667" stroke="white" stroke-width="0.3"/>
<rect opacity="0.15" x="423.15" y="225.817" width="34.7" height="55.8667" stroke="white" stroke-width="0.3"/>
<rect opacity="0.15" x="458.15" y="225.817" width="34.7" height="55.8667" stroke="white" stroke-width="0.3"/>
<rect opacity="0.15" x="493.15" y="225.817" width="34.7" height="55.8667" stroke="white" stroke-width="0.3"/>
<rect opacity="0.15" x="528.15" y="225.817" width="34.7" height="55.8667" stroke="white" stroke-width="0.3"/>
<rect opacity="0.15" x="563.15" y="226.15" width="37.7" height="55.7" stroke="white" stroke-width="0.3"/>
<rect opacity="0.15" x="388.15" y="281.983" width="34.7" height="55.8667" stroke="white" stroke-width="0.3"/>
<rect opacity="0.15" x="423.15" y="281.983" width="34.7" height="55.8667" stroke="white" stroke-width="0.3"/>
<rect opacity="0.15" x="458.15" y="281.983" width="34.7" height="55.8667" stroke="white" stroke-width="0.3"/>
<rect opacity="0.15" x="493.15" y="281.983" width="34.7" height="55.8667" stroke="white" stroke-width="0.3"/>
<rect opacity="0.15" x="528.15" y="281.983" width="34.7" height="55.8667" stroke="white" stroke-width="0.3"/>
<rect opacity="0.15" x="563.15" y="282.15" width="37.7" height="55.7" stroke="white" stroke-width="0.3"/>
<rect opacity="0.15" x="388.15" y="338.15" width="34.7" height="55.8667" stroke="white" stroke-width="0.3"/>
<rect opacity="0.15" x="423.15" y="338.15" width="34.7" height="55.8667" stroke="white" stroke-width="0.3"/>
<rect opacity="0.15" x="458.15" y="338.15" width="34.7" height="55.8667" stroke="white" stroke-width="0.3"/>
<rect opacity="0.15" x="493.15" y="338.15" width="34.7" height="55.8667" stroke="white" stroke-width="0.3"/>
<rect opacity="0.15" x="528.15" y="338.15" width="34.7" height="55.8667" stroke="white" stroke-width="0.3"/>
<rect opacity="0.15" x="563.15" y="338.15" width="37.7" height="55.7" stroke="white" stroke-width="0.3"/>
<rect opacity="0.15" x="388.15" y="394.317" width="34.7" height="55.8667" stroke="white" stroke-width="0.3"/>
<rect opacity="0.15" x="423.15" y="394.317" width="34.7" height="55.8667" stroke="white" stroke-width="0.3"/>
<rect opacity="0.15" x="458.15" y="394.317" width="34.7" height="55.8667" stroke="white" stroke-width="0.3"/>
<rect opacity="0.15" x="493.15" y="394.317" width="34.7" height="55.8667" stroke="white" stroke-width="0.3"/>
<rect opacity="0.15" x="528.15" y="394.317" width="34.7" height="55.8667" stroke="white" stroke-width="0.3"/>
<rect opacity="0.15" x="563.15" y="394.15" width="37.7" height="55.7" stroke="white" stroke-width="0.3"/>
<rect opacity="0.15" x="388.15" y="450.483" width="34.7" height="55.8667" stroke="white" stroke-width="0.3"/>
<rect opacity="0.15" x="423.15" y="450.483" width="34.7" height="55.8667" stroke="white" stroke-width="0.3"/>
<rect opacity="0.15" x="458.15" y="450.483" width="34.7" height="55.8667" stroke="white" stroke-width="0.3"/>
<rect opacity="0.15" x="493.15" y="450.483" width="34.7" height="55.8667" stroke="white" stroke-width="0.3"/>
<rect opacity="0.15" x="528.15" y="450.483" width="34.7" height="55.8667" stroke="white" stroke-width="0.3"/>
<rect opacity="0.15" x="563.15" y="450.15" width="37.7" height="56.7" stroke="white" stroke-width="0.3"/>
<rect opacity="0.15" x="388.15" y="506.65" width="34.7" height="55.8667" stroke="white" stroke-width="0.3"/>
<rect opacity="0.15" x="423.15" y="506.65" width="34.7" height="55.8667" stroke="white" stroke-width="0.3"/>
<rect opacity="0.15" x="458.15" y="506.65" width="34.7" height="55.8667" stroke="white" stroke-width="0.3"/>
<rect opacity="0.15" x="493.15" y="506.65" width="34.7" height="55.8667" stroke="white" stroke-width="0.3"/>
<rect opacity="0.15" x="528.15" y="506.65" width="34.7" height="55.8667" stroke="white" stroke-width="0.3"/>
<rect opacity="0.15" x="563.15" y="507.15" width="37.7" height="55.7" stroke="white" stroke-width="0.3"/>
<rect opacity="0.15" x="388.15" y="562.817" width="34.7" height="55.8667" stroke="white" stroke-width="0.3"/>
<rect opacity="0.15" x="423.15" y="562.817" width="34.7" height="55.8667" stroke="white" stroke-width="0.3"/>
<rect opacity="0.15" x="458.15" y="562.817" width="34.7" height="55.8667" stroke="white" stroke-width="0.3"/>
<rect opacity="0.15" x="493.15" y="562.817" width="34.7" height="55.8667" stroke="white" stroke-width="0.3"/>
<rect opacity="0.15" x="528.15" y="562.817" width="34.7" height="55.8667" stroke="white" stroke-width="0.3"/>
<rect opacity="0.15" x="563.15" y="563.15" width="37.7" height="55.7" stroke="white" stroke-width="0.3"/>
<rect opacity="0.15" x="388.15" y="618.983" width="34.7" height="55.8667" stroke="white" stroke-width="0.3"/>
<rect opacity="0.15" x="423.15" y="618.983" width="34.7" height="55.8667" stroke="white" stroke-width="0.3"/>
<rect opacity="0.15" x="458.15" y="618.983" width="34.7" height="55.8667" stroke="white" stroke-width="0.3"/>
<rect opacity="0.15" x="493.15" y="618.983" width="34.7" height="55.8667" stroke="white" stroke-width="0.3"/>
<rect opacity="0.15" x="528.15" y="618.983" width="34.7" height="55.8667" stroke="white" stroke-width="0.3"/>
<rect opacity="0.15" x="563.15" y="619.15" width="37.7" height="55.7" stroke="white" stroke-width="0.3"/>
</g>
<defs>
<radialGradient id="paint0_radial" cx="0" cy="0" r="1" gradientUnits="userSpaceOnUse" gradientTransform="translate(300.5 338) rotate(90) scale(405 360.067)">
<stop/>
<stop offset="1" stop-opacity="0"/>
</radialGradient>
</defs>
</svg>
