<svg width="421" height="676" viewBox="0 0 421 676" fill="none" xmlns="http://www.w3.org/2000/svg">
<mask id="mask0" mask-type="alpha" maskUnits="userSpaceOnUse" x="0" y="0" width="421" height="676">
<rect width="421" height="676" fill="url(#paint0_radial)"/>
</mask>
<g mask="url(#mask0)">
<rect opacity="0.15" x="1.15" y="1.15" width="34.7" height="55.8667" stroke="white" stroke-width="0.3"/>
<rect opacity="0.15" x="1.15" y="57.3166" width="34.7" height="55.8667" stroke="white" stroke-width="0.3"/>
<rect opacity="0.15" x="1.15" y="113.483" width="34.7" height="55.8667" stroke="white" stroke-width="0.3"/>
<rect opacity="0.15" x="1.15" y="169.65" width="34.7" height="55.8667" stroke="white" stroke-width="0.3"/>
<rect opacity="0.15" x="1.15" y="225.817" width="34.7" height="55.8667" stroke="white" stroke-width="0.3"/>
<rect opacity="0.15" x="1.15" y="281.983" width="34.7" height="55.8667" stroke="white" stroke-width="0.3"/>
<rect opacity="0.15" x="1.15" y="338.15" width="34.7" height="55.8667" stroke="white" stroke-width="0.3"/>
<rect opacity="0.15" x="1.15" y="394.317" width="34.7" height="55.8667" stroke="white" stroke-width="0.3"/>
<rect opacity="0.15" x="1.15" y="450.483" width="34.7" height="55.8667" stroke="white" stroke-width="0.3"/>
<rect opacity="0.15" x="1.15" y="506.65" width="34.7" height="55.8667" stroke="white" stroke-width="0.3"/>
<rect opacity="0.15" x="1.15" y="562.817" width="34.7" height="55.8667" stroke="white" stroke-width="0.3"/>
<rect opacity="0.15" x="1.15" y="618.983" width="34.7" height="55.8667" stroke="white" stroke-width="0.3"/>
<rect opacity="0.15" x="36.1496" y="1.15" width="34.7" height="55.8667" stroke="white" stroke-width="0.3"/>
<rect opacity="0.15" x="36.1496" y="57.3166" width="34.7" height="55.8667" stroke="white" stroke-width="0.3"/>
<rect opacity="0.15" x="36.1496" y="113.483" width="34.7" height="55.8667" stroke="white" stroke-width="0.3"/>
<rect opacity="0.15" x="36.1496" y="169.65" width="34.7" height="55.8667" stroke="white" stroke-width="0.3"/>
<rect opacity="0.15" x="36.1496" y="225.817" width="34.7" height="55.8667" stroke="white" stroke-width="0.3"/>
<rect opacity="0.15" x="36.1496" y="281.983" width="34.7" height="55.8667" stroke="white" stroke-width="0.3"/>
<rect opacity="0.15" x="36.1496" y="338.15" width="34.7" height="55.8667" stroke="white" stroke-width="0.3"/>
<rect opacity="0.15" x="36.1496" y="394.317" width="34.7" height="55.8667" stroke="white" stroke-width="0.3"/>
<rect opacity="0.15" x="36.1496" y="450.483" width="34.7" height="55.8667" stroke="white" stroke-width="0.3"/>
<rect opacity="0.15" x="36.1496" y="506.65" width="34.7" height="55.8667" stroke="white" stroke-width="0.3"/>
<rect opacity="0.15" x="36.1496" y="562.817" width="34.7" height="55.8667" stroke="white" stroke-width="0.3"/>
<rect opacity="0.15" x="36.1496" y="618.983" width="34.7" height="55.8667" stroke="white" stroke-width="0.3"/>
<rect opacity="0.15" x="71.1503" y="1.15" width="34.7" height="55.8667" stroke="white" stroke-width="0.3"/>
<rect opacity="0.15" x="71.1503" y="57.3166" width="34.7" height="55.8667" stroke="white" stroke-width="0.3"/>
<rect opacity="0.15" x="71.1503" y="113.483" width="34.7" height="55.8667" stroke="white" stroke-width="0.3"/>
<rect opacity="0.15" x="71.1503" y="169.65" width="34.7" height="55.8667" stroke="white" stroke-width="0.3"/>
<rect opacity="0.15" x="71.1503" y="225.817" width="34.7" height="55.8667" stroke="white" stroke-width="0.3"/>
<rect opacity="0.15" x="71.1503" y="281.983" width="34.7" height="55.8667" stroke="white" stroke-width="0.3"/>
<rect opacity="0.15" x="71.1503" y="338.15" width="34.7" height="55.8667" stroke="white" stroke-width="0.3"/>
<rect opacity="0.15" x="71.1503" y="394.317" width="34.7" height="55.8667" stroke="white" stroke-width="0.3"/>
<rect opacity="0.15" x="71.1503" y="450.483" width="34.7" height="55.8667" stroke="white" stroke-width="0.3"/>
<rect opacity="0.15" x="71.1503" y="506.65" width="34.7" height="55.8667" stroke="white" stroke-width="0.3"/>
<rect opacity="0.15" x="71.1503" y="562.817" width="34.7" height="55.8667" stroke="white" stroke-width="0.3"/>
<rect opacity="0.15" x="71.1503" y="618.983" width="34.7" height="55.8667" stroke="white" stroke-width="0.3"/>
<rect opacity="0.15" x="106.15" y="1.15" width="34.7" height="55.8667" stroke="white" stroke-width="0.3"/>
<rect opacity="0.15" x="106.15" y="57.3166" width="34.7" height="55.8667" stroke="white" stroke-width="0.3"/>
<rect opacity="0.15" x="106.15" y="113.483" width="34.7" height="55.8667" stroke="white" stroke-width="0.3"/>
<rect opacity="0.15" x="106.15" y="169.65" width="34.7" height="55.8667" stroke="white" stroke-width="0.3"/>
<rect opacity="0.15" x="106.15" y="225.817" width="34.7" height="55.8667" stroke="white" stroke-width="0.3"/>
<rect opacity="0.15" x="106.15" y="281.983" width="34.7" height="55.8667" stroke="white" stroke-width="0.3"/>
<rect opacity="0.15" x="106.15" y="338.15" width="34.7" height="55.8667" stroke="white" stroke-width="0.3"/>
<rect opacity="0.15" x="106.15" y="394.317" width="34.7" height="55.8667" stroke="white" stroke-width="0.3"/>
<rect opacity="0.15" x="106.15" y="450.483" width="34.7" height="55.8667" stroke="white" stroke-width="0.3"/>
<rect opacity="0.15" x="106.15" y="506.65" width="34.7" height="55.8667" stroke="white" stroke-width="0.3"/>
<rect opacity="0.15" x="106.15" y="562.817" width="34.7" height="55.8667" stroke="white" stroke-width="0.3"/>
<rect opacity="0.15" x="106.15" y="618.983" width="34.7" height="55.8667" stroke="white" stroke-width="0.3"/>
<rect opacity="0.15" x="141.15" y="1.15" width="34.7" height="55.8667" stroke="white" stroke-width="0.3"/>
<rect opacity="0.15" x="141.15" y="57.3166" width="34.7" height="55.8667" stroke="white" stroke-width="0.3"/>
<rect opacity="0.15" x="141.15" y="113.483" width="34.7" height="55.8667" stroke="white" stroke-width="0.3"/>
<rect opacity="0.15" x="141.15" y="169.65" width="34.7" height="55.8667" stroke="white" stroke-width="0.3"/>
<rect opacity="0.15" x="141.15" y="225.817" width="34.7" height="55.8667" stroke="white" stroke-width="0.3"/>
<rect opacity="0.15" x="141.15" y="281.983" width="34.7" height="55.8667" stroke="white" stroke-width="0.3"/>
<rect opacity="0.15" x="141.15" y="338.15" width="34.7" height="55.8667" stroke="white" stroke-width="0.3"/>
<rect opacity="0.15" x="141.15" y="394.317" width="34.7" height="55.8667" stroke="white" stroke-width="0.3"/>
<rect opacity="0.15" x="141.15" y="450.483" width="34.7" height="55.8667" stroke="white" stroke-width="0.3"/>
<rect opacity="0.15" x="141.15" y="506.65" width="34.7" height="55.8667" stroke="white" stroke-width="0.3"/>
<rect opacity="0.15" x="141.15" y="562.817" width="34.7" height="55.8667" stroke="white" stroke-width="0.3"/>
<rect opacity="0.15" x="141.15" y="618.983" width="34.7" height="55.8667" stroke="white" stroke-width="0.3"/>
<rect opacity="0.15" x="176.15" y="1.15" width="34.7" height="55.8667" stroke="white" stroke-width="0.3"/>
<rect opacity="0.15" x="176.15" y="57.3166" width="34.7" height="55.8667" stroke="white" stroke-width="0.3"/>
<rect opacity="0.15" x="176.15" y="113.483" width="34.7" height="55.8667" stroke="white" stroke-width="0.3"/>
<rect opacity="0.15" x="176.15" y="169.65" width="34.7" height="55.8667" stroke="white" stroke-width="0.3"/>
<rect opacity="0.15" x="176.15" y="225.817" width="34.7" height="55.8667" stroke="white" stroke-width="0.3"/>
<rect opacity="0.15" x="176.15" y="281.983" width="34.7" height="55.8667" stroke="white" stroke-width="0.3"/>
<rect opacity="0.15" x="176.15" y="338.15" width="34.7" height="55.8667" stroke="white" stroke-width="0.3"/>
<rect opacity="0.15" x="176.15" y="394.317" width="34.7" height="55.8667" stroke="white" stroke-width="0.3"/>
<rect opacity="0.15" x="176.15" y="450.483" width="34.7" height="55.8667" stroke="white" stroke-width="0.3"/>
<rect opacity="0.15" x="176.15" y="506.65" width="34.7" height="55.8667" stroke="white" stroke-width="0.3"/>
<rect opacity="0.15" x="176.15" y="562.817" width="34.7" height="55.8667" stroke="white" stroke-width="0.3"/>
<rect opacity="0.15" x="176.15" y="618.983" width="34.7" height="55.8667" stroke="white" stroke-width="0.3"/>
<rect opacity="0.15" x="211.15" y="1.15" width="34.7" height="55.8667" stroke="white" stroke-width="0.3"/>
<rect opacity="0.15" x="211.15" y="57.3166" width="34.7" height="55.8667" stroke="white" stroke-width="0.3"/>
<rect opacity="0.15" x="211.15" y="113.483" width="34.7" height="55.8667" stroke="white" stroke-width="0.3"/>
<rect opacity="0.15" x="211.15" y="169.65" width="34.7" height="55.8667" stroke="white" stroke-width="0.3"/>
<rect opacity="0.15" x="211.15" y="225.817" width="34.7" height="55.8667" stroke="white" stroke-width="0.3"/>
<rect opacity="0.15" x="211.15" y="281.983" width="34.7" height="55.8667" stroke="white" stroke-width="0.3"/>
<rect opacity="0.15" x="211.15" y="338.15" width="34.7" height="55.8667" stroke="white" stroke-width="0.3"/>
<rect opacity="0.15" x="211.15" y="394.317" width="34.7" height="55.8667" stroke="white" stroke-width="0.3"/>
<rect opacity="0.15" x="211.15" y="450.483" width="34.7" height="55.8667" stroke="white" stroke-width="0.3"/>
<rect opacity="0.15" x="211.15" y="506.65" width="34.7" height="55.8667" stroke="white" stroke-width="0.3"/>
<rect opacity="0.15" x="211.15" y="562.817" width="34.7" height="55.8667" stroke="white" stroke-width="0.3"/>
<rect opacity="0.15" x="211.15" y="618.983" width="34.7" height="55.8667" stroke="white" stroke-width="0.3"/>
<rect opacity="0.15" x="246.149" y="1.15" width="34.7" height="55.8667" stroke="white" stroke-width="0.3"/>
<rect opacity="0.15" x="246.149" y="57.3166" width="34.7" height="55.8667" stroke="white" stroke-width="0.3"/>
<rect opacity="0.15" x="246.149" y="113.483" width="34.7" height="55.8667" stroke="white" stroke-width="0.3"/>
<rect opacity="0.15" x="246.149" y="169.65" width="34.7" height="55.8667" stroke="white" stroke-width="0.3"/>
<rect opacity="0.15" x="246.149" y="225.817" width="34.7" height="55.8667" stroke="white" stroke-width="0.3"/>
<rect opacity="0.15" x="246.149" y="281.983" width="34.7" height="55.8667" stroke="white" stroke-width="0.3"/>
<rect opacity="0.15" x="246.149" y="338.15" width="34.7" height="55.8667" stroke="white" stroke-width="0.3"/>
<rect opacity="0.15" x="246.149" y="394.317" width="34.7" height="55.8667" stroke="white" stroke-width="0.3"/>
<rect opacity="0.15" x="246.149" y="450.483" width="34.7" height="55.8667" stroke="white" stroke-width="0.3"/>
<rect opacity="0.15" x="246.149" y="506.65" width="34.7" height="55.8667" stroke="white" stroke-width="0.3"/>
<rect opacity="0.15" x="246.149" y="562.817" width="34.7" height="55.8667" stroke="white" stroke-width="0.3"/>
<rect opacity="0.15" x="246.149" y="618.983" width="34.7" height="55.8667" stroke="white" stroke-width="0.3"/>
<rect opacity="0.15" x="281.15" y="1.15" width="34.7" height="55.8667" stroke="white" stroke-width="0.3"/>
<rect opacity="0.15" x="281.15" y="57.3166" width="34.7" height="55.8667" stroke="white" stroke-width="0.3"/>
<rect opacity="0.15" x="281.15" y="113.483" width="34.7" height="55.8667" stroke="white" stroke-width="0.3"/>
<rect opacity="0.15" x="281.15" y="169.65" width="34.7" height="55.8667" stroke="white" stroke-width="0.3"/>
<rect opacity="0.15" x="281.15" y="225.817" width="34.7" height="55.8667" stroke="white" stroke-width="0.3"/>
<rect opacity="0.15" x="281.15" y="281.983" width="34.7" height="55.8667" stroke="white" stroke-width="0.3"/>
<rect opacity="0.15" x="281.15" y="338.15" width="34.7" height="55.8667" stroke="white" stroke-width="0.3"/>
<rect opacity="0.15" x="281.15" y="394.317" width="34.7" height="55.8667" stroke="white" stroke-width="0.3"/>
<rect opacity="0.15" x="281.15" y="450.483" width="34.7" height="55.8667" stroke="white" stroke-width="0.3"/>
<rect opacity="0.15" x="281.15" y="506.65" width="34.7" height="55.8667" stroke="white" stroke-width="0.3"/>
<rect opacity="0.15" x="281.15" y="562.817" width="34.7" height="55.8667" stroke="white" stroke-width="0.3"/>
<rect opacity="0.15" x="281.15" y="618.983" width="34.7" height="55.8667" stroke="white" stroke-width="0.3"/>
<rect opacity="0.15" x="316.15" y="1.15" width="34.7" height="55.8667" stroke="white" stroke-width="0.3"/>
<rect opacity="0.15" x="316.15" y="57.3166" width="34.7" height="55.8667" stroke="white" stroke-width="0.3"/>
<rect opacity="0.15" x="316.15" y="113.483" width="34.7" height="55.8667" stroke="white" stroke-width="0.3"/>
<rect opacity="0.15" x="316.15" y="169.65" width="34.7" height="55.8667" stroke="white" stroke-width="0.3"/>
<rect opacity="0.15" x="316.15" y="225.817" width="34.7" height="55.8667" stroke="white" stroke-width="0.3"/>
<rect opacity="0.15" x="316.15" y="281.983" width="34.7" height="55.8667" stroke="white" stroke-width="0.3"/>
<rect opacity="0.15" x="316.15" y="338.15" width="34.7" height="55.8667" stroke="white" stroke-width="0.3"/>
<rect opacity="0.15" x="316.15" y="394.317" width="34.7" height="55.8667" stroke="white" stroke-width="0.3"/>
<rect opacity="0.15" x="316.15" y="450.483" width="34.7" height="55.8667" stroke="white" stroke-width="0.3"/>
<rect opacity="0.15" x="316.15" y="506.65" width="34.7" height="55.8667" stroke="white" stroke-width="0.3"/>
<rect opacity="0.15" x="316.15" y="562.817" width="34.7" height="55.8667" stroke="white" stroke-width="0.3"/>
<rect opacity="0.15" x="316.15" y="618.983" width="34.7" height="55.8667" stroke="white" stroke-width="0.3"/>
<rect opacity="0.15" x="351.149" y="1.15" width="34.7" height="55.8667" stroke="white" stroke-width="0.3"/>
<rect opacity="0.15" x="351.149" y="57.3166" width="34.7" height="55.8667" stroke="white" stroke-width="0.3"/>
<rect opacity="0.15" x="351.149" y="113.483" width="34.7" height="55.8667" stroke="white" stroke-width="0.3"/>
<rect opacity="0.15" x="351.149" y="169.65" width="34.7" height="55.8667" stroke="white" stroke-width="0.3"/>
<rect opacity="0.15" x="351.149" y="225.817" width="34.7" height="55.8667" stroke="white" stroke-width="0.3"/>
<rect opacity="0.15" x="351.149" y="281.983" width="34.7" height="55.8667" stroke="white" stroke-width="0.3"/>
<rect opacity="0.15" x="351.149" y="338.15" width="34.7" height="55.8667" stroke="white" stroke-width="0.3"/>
<rect opacity="0.15" x="351.149" y="394.317" width="34.7" height="55.8667" stroke="white" stroke-width="0.3"/>
<rect opacity="0.15" x="351.149" y="450.483" width="34.7" height="55.8667" stroke="white" stroke-width="0.3"/>
<rect opacity="0.15" x="351.149" y="506.65" width="34.7" height="55.8667" stroke="white" stroke-width="0.3"/>
<rect opacity="0.15" x="351.149" y="562.817" width="34.7" height="55.8667" stroke="white" stroke-width="0.3"/>
<rect opacity="0.15" x="351.149" y="618.983" width="34.7" height="55.8667" stroke="white" stroke-width="0.3"/>
<rect opacity="0.15" x="386.15" y="1.15" width="34.7" height="55.8667" stroke="white" stroke-width="0.3"/>
<rect opacity="0.15" x="386.15" y="57.3166" width="34.7" height="55.8667" stroke="white" stroke-width="0.3"/>
<rect opacity="0.15" x="386.15" y="113.483" width="34.7" height="55.8667" stroke="white" stroke-width="0.3"/>
<rect opacity="0.15" x="386.15" y="169.65" width="34.7" height="55.8667" stroke="white" stroke-width="0.3"/>
<rect opacity="0.15" x="386.15" y="225.817" width="34.7" height="55.8667" stroke="white" stroke-width="0.3"/>
<rect opacity="0.15" x="386.15" y="281.983" width="34.7" height="55.8667" stroke="white" stroke-width="0.3"/>
<rect opacity="0.15" x="386.15" y="338.15" width="34.7" height="55.8667" stroke="white" stroke-width="0.3"/>
<rect opacity="0.15" x="386.15" y="394.317" width="34.7" height="55.8667" stroke="white" stroke-width="0.3"/>
<rect opacity="0.15" x="386.15" y="450.483" width="34.7" height="55.8667" stroke="white" stroke-width="0.3"/>
<rect opacity="0.15" x="386.15" y="506.65" width="34.7" height="55.8667" stroke="white" stroke-width="0.3"/>
<rect opacity="0.15" x="386.15" y="562.817" width="34.7" height="55.8667" stroke="white" stroke-width="0.3"/>
<rect opacity="0.15" x="386.15" y="618.983" width="34.7" height="55.8667" stroke="white" stroke-width="0.3"/>
</g>
<defs>
<radialGradient id="paint0_radial" cx="0" cy="0" r="1" gradientUnits="userSpaceOnUse" gradientTransform="translate(210.5 338) rotate(90) scale(405 252.226)">
<stop/>
<stop offset="1" stop-opacity="0"/>
</radialGradient>
</defs>
</svg>
