<svg width="27" height="24" viewBox="0 0 27 24" fill="none" xmlns="http://www.w3.org/2000/svg">
<mask id="path-1-inside-1" fill="white">
<path fill-rule="evenodd" clip-rule="evenodd" d="M24.1289 14.7142L27 11.8431L15.1569 -5.1768e-07L12.2858 2.87106L19.0579 9.6432L0.100084 9.6432L0.100084 13.7035L19.3974 13.7035L12.2856 20.8153L15.1567 23.6863L24.1289 14.7141L24.1289 14.7142Z"/>
</mask>
<path fill-rule="evenodd" clip-rule="evenodd" d="M24.1289 14.7142L27 11.8431L15.1569 -5.1768e-07L12.2858 2.87106L19.0579 9.6432L0.100084 9.6432L0.100084 13.7035L19.3974 13.7035L12.2856 20.8153L15.1567 23.6863L24.1289 14.7141L24.1289 14.7142Z" fill="white"/>
<path d="M27 11.8431L27.1794 12.0226L27.3589 11.8431L27.1794 11.6637L27 11.8431ZM24.1289 14.7142L23.9495 14.8936L24.1289 15.0731L24.3084 14.8936L24.1289 14.7142ZM15.1569 -5.1768e-07L15.3363 -0.179442L15.1569 -0.358883L14.9774 -0.179442L15.1569 -5.1768e-07ZM12.2858 2.87106L12.1064 2.69162L11.9269 2.87106L12.1064 3.0505L12.2858 2.87106ZM19.0579 9.6432L19.0579 9.89697L19.6706 9.89697L19.2374 9.46376L19.0579 9.6432ZM0.100084 9.6432L0.100084 9.38943L-0.153685 9.38943L-0.153685 9.6432L0.100084 9.6432ZM0.100084 13.7035L-0.153685 13.7035L-0.153685 13.9573L0.100084 13.9573L0.100084 13.7035ZM19.3974 13.7035L19.5768 13.8829L20.01 13.4497L19.3974 13.4497L19.3974 13.7035ZM12.2856 20.8153L12.1062 20.6358L11.9267 20.8153L12.1062 20.9947L12.2856 20.8153ZM15.1567 23.6863L14.9772 23.8658L15.1567 24.0452L15.3361 23.8658L15.1567 23.6863ZM24.1289 14.7141L24.3083 14.5347L24.1289 14.3552L23.9494 14.5347L24.1289 14.7141ZM26.8206 11.6637L23.9495 14.5348L24.3084 14.8936L27.1794 12.0226L26.8206 11.6637ZM14.9774 0.179441L26.8206 12.0226L27.1794 11.6637L15.3363 -0.179442L14.9774 0.179441ZM12.4652 3.0505L15.3363 0.179441L14.9774 -0.179442L12.1064 2.69162L12.4652 3.0505ZM19.2374 9.46376L12.4652 2.69162L12.1064 3.0505L18.8785 9.82264L19.2374 9.46376ZM19.0579 9.38943L0.100084 9.38943L0.100084 9.89697L19.0579 9.89697L19.0579 9.38943ZM-0.153685 9.6432L-0.153685 13.7035L0.353853 13.7035L0.353853 9.6432L-0.153685 9.6432ZM0.100084 13.9573L19.3974 13.9573L19.3974 13.4497L0.100084 13.4497L0.100084 13.9573ZM19.2179 13.5241L12.1062 20.6358L12.4651 20.9947L19.5768 13.8829L19.2179 13.5241ZM12.1062 20.9947L14.9772 23.8658L15.3361 23.5069L12.4651 20.6358L12.1062 20.9947ZM15.3361 23.8658L24.3083 14.8936L23.9494 14.5347L14.9772 23.5069L15.3361 23.8658ZM24.3084 14.5348L24.3083 14.5347L23.9494 14.8936L23.9495 14.8936L24.3084 14.5348Z" fill="white" mask="url(#path-1-inside-1)"/>
</svg>
