<svg width="11" height="13" viewBox="0 0 11 13" fill="none" xmlns="http://www.w3.org/2000/svg">
<path opacity="0.8" d="M0.432 6.168C0.432 5.244 0.558 4.416 0.81 3.684C1.074 2.94 1.428 2.316 1.872 1.812C2.328 1.296 2.856 0.905999 3.456 0.641999C4.068 0.365999 4.716 0.227999 5.4 0.227999C6.084 0.227999 6.726 0.365999 7.326 0.641999C7.938 0.905999 8.466 1.296 8.91 1.812C9.366 2.316 9.72 2.94 9.972 3.684C10.236 4.416 10.368 5.244 10.368 6.168C10.368 7.092 10.236 7.926 9.972 8.67C9.72 9.402 9.366 10.032 8.91 10.56C8.466 11.076 7.938 11.478 7.326 11.766C6.726 12.042 6.084 12.18 5.4 12.18C4.716 12.18 4.068 12.042 3.456 11.766C2.856 11.478 2.328 11.076 1.872 10.56C1.428 10.032 1.074 9.402 0.81 8.67C0.558 7.926 0.432 7.092 0.432 6.168ZM1.44 6.168C1.44 6.924 1.536 7.614 1.728 8.238C1.92 8.862 2.184 9.396 2.52 9.84C2.868 10.284 3.282 10.632 3.762 10.884C4.254 11.124 4.8 11.244 5.4 11.244C5.988 11.244 6.528 11.124 7.02 10.884C7.512 10.632 7.926 10.284 8.262 9.84C8.61 9.396 8.88 8.862 9.072 8.238C9.264 7.614 9.36 6.924 9.36 6.168C9.36 5.4 9.264 4.71 9.072 4.098C8.88 3.474 8.61 2.946 8.262 2.514C7.926 2.07 7.512 1.734 7.02 1.506C6.528 1.266 5.988 1.146 5.4 1.146C4.8 1.146 4.254 1.266 3.762 1.506C3.282 1.734 2.868 2.07 2.52 2.514C2.184 2.946 1.92 3.474 1.728 4.098C1.536 4.71 1.44 5.4 1.44 6.168ZM2.556 6.186C2.556 5.658 2.64 5.184 2.808 4.764C2.976 4.332 3.198 3.972 3.474 3.684C3.75 3.384 4.074 3.156 4.446 3C4.818 2.832 5.202 2.748 5.598 2.748C6.054 2.748 6.432 2.832 6.732 3C7.044 3.168 7.32 3.372 7.56 3.612L6.75 4.512C6.582 4.356 6.42 4.236 6.264 4.152C6.108 4.068 5.928 4.026 5.724 4.026C5.22 4.026 4.824 4.23 4.536 4.638C4.26 5.046 4.122 5.562 4.122 6.186C4.122 6.882 4.26 7.434 4.536 7.842C4.812 8.25 5.178 8.454 5.634 8.454C5.91 8.454 6.138 8.406 6.318 8.31C6.51 8.202 6.708 8.076 6.912 7.932L7.596 8.94C7.32 9.168 7.02 9.36 6.696 9.516C6.372 9.66 6 9.732 5.58 9.732C5.148 9.732 4.746 9.654 4.374 9.498C4.014 9.33 3.696 9.096 3.42 8.796C3.156 8.484 2.946 8.112 2.79 7.68C2.634 7.236 2.556 6.738 2.556 6.186Z" fill="white"/>
</svg>
