<svg width="119" height="14" viewBox="0 0 119 14" fill="none" xmlns="http://www.w3.org/2000/svg">
<path fill-rule="evenodd" clip-rule="evenodd" d="M4.11331 0H0V13.7233H4.05797V12.3215C4.44532 12.7088 6.12385 13.9631 8.96443 13.9631H9.278C13.6864 13.9631 15.4756 11.5652 15.4756 8.89065V8.54019C15.4756 5.82872 13.9078 3.55995 9.40711 3.55995H9.02503C6.14912 3.55995 4.65216 4.75355 4.15842 5.14724C4.14232 5.16008 4.12729 5.17207 4.11331 5.18314V0ZM4.1131 8.7614V8.68762C4.1131 7.41489 5.23826 6.12372 7.69149 6.12372H7.80216C10.4767 6.12372 11.2699 7.41489 11.2699 8.68762V8.7614C11.2699 9.96035 10.4767 11.3437 7.80216 11.3437H7.69149C5.27515 11.3437 4.1131 9.99724 4.1131 8.7614Z" fill="white"/>
<path d="M20.9355 0V13.7233H16.8221V0H20.9355Z" fill="white"/>
<path fill-rule="evenodd" clip-rule="evenodd" d="M26.9488 13.9078C29.8631 13.9078 31.1308 12.9196 31.555 12.3847V13.7233H33.1095H35.3651V11.0224V10.5613L35.3967 6.73256C35.3967 5.29382 35.0278 3.52307 29.2729 3.52307H28.2584C22.7248 3.52307 22.3374 5.5705 22.3374 6.88012V6.91701H26.1556C26.1564 6.91225 26.1572 6.9074 26.158 6.90246C26.2141 6.56294 26.3384 5.81029 28.7564 5.81029H28.8486C31.265 5.81029 31.431 6.25298 31.431 6.62189C31.431 6.93546 31.265 7.08302 30.8039 7.13835L26.2663 7.5626C23.2966 7.83928 22.0977 8.70621 22.0977 10.5323V10.6614C22.0977 12.3584 23.3704 13.9078 26.709 13.9078H26.9488ZM31.4307 9.00156V9.31513C31.4307 10.4956 30.0104 11.6761 27.8154 11.6761C26.4135 11.6761 26.0078 11.0859 26.0078 10.551V10.5325C26.0078 9.96071 26.4504 9.77626 27.5018 9.61025L31.4307 9.00156Z" fill="white"/>
<path fill-rule="evenodd" clip-rule="evenodd" d="M93.2569 13.9078C96.1712 13.9078 97.4389 12.9196 97.8631 12.3847V13.7233H99.4176H101.673V11.0224V10.5613L101.705 6.73256C101.705 5.29382 101.336 3.52307 95.581 3.52307H94.5665C89.0329 3.52307 88.6456 5.5705 88.6456 6.88012V6.91701H92.4637C92.4645 6.91225 92.4653 6.9074 92.4661 6.90246C92.5222 6.56294 92.6465 5.81029 95.0645 5.81029H95.1568C97.5731 5.81029 97.7391 6.25298 97.7391 6.62189C97.7391 6.93546 97.5731 7.08302 97.112 7.13835L92.5744 7.5626C89.6047 7.83928 88.4058 8.70621 88.4058 10.5323V10.6614C88.4058 12.3584 89.6785 13.9078 93.0171 13.9078H93.2569ZM97.7393 9.00156V9.31513C97.7393 10.4956 96.319 11.6761 94.124 11.6761C92.7221 11.6761 92.3163 11.0859 92.3163 10.551V10.5325C92.3163 9.96071 92.759 9.77626 93.8104 9.61025L97.7393 9.00156Z" fill="white"/>
<path d="M44.6324 14H43.6179C37.9552 14 36.7009 11.1041 36.7009 8.89066V8.52175C36.7009 6.30832 37.9368 3.52307 43.5995 3.52307H44.6509C50.8485 3.52307 51.6232 6.52966 51.6232 7.85772V7.91306H47.3992C47.307 7.52571 46.9381 6.12386 44.1159 6.12386H44.0606C41.6627 6.12386 40.9065 7.32281 40.9065 8.57709V8.70621C40.9065 10.0343 41.6812 11.3623 44.0606 11.3623H44.1159C46.9012 11.3623 47.307 9.9236 47.3992 9.53625H51.6232V9.57314C51.6232 10.9565 50.9776 14 44.6324 14Z" fill="white"/>
<path d="M56.9539 13.7233H52.8406V0H56.9539V7.76548L60.975 3.79974H65.531L60.8458 8.28195L66.1028 13.7233H61.2701L56.9539 9.16733V13.7233Z" fill="white"/>
<path d="M71.2017 0V13.7233H67.0884V0H71.2017Z" fill="white"/>
<path fill-rule="evenodd" clip-rule="evenodd" d="M87.191 10.2372V10.2187H83.133C83.0777 10.4585 82.635 11.4915 79.9051 11.4915H79.8867C77.6179 11.4915 76.6218 10.7167 76.3821 9.55469H87.2464V8.87222C87.2464 6.45588 86.1765 3.52307 80.3478 3.52307H79.2226C73.855 3.52307 72.3425 5.9763 72.3425 8.52175V8.92755C72.3425 11.5283 74.0395 14 79.3333 14H80.3847C86.3056 14 87.191 11.5837 87.191 10.2372ZM79.7576 5.82883H79.7761C81.8604 5.82883 82.8195 6.45597 83.0962 7.50735H76.4559C76.7695 6.45597 77.6917 5.82883 79.7576 5.82883Z" fill="white"/>
<path fill-rule="evenodd" clip-rule="evenodd" d="M118.553 0H114.422V5.1278C113.96 4.722 112.54 3.55995 109.441 3.55995H109.146C104.701 3.55995 103.059 5.84717 103.059 8.50329V8.85376C103.059 11.639 104.904 13.9631 109.312 13.9631H109.552C112.743 13.9631 114.182 12.5982 114.458 12.2108V13.7233H118.553V0ZM114.421 8.70613V8.77991C114.421 10.0526 113.13 11.3438 110.696 11.3438H110.603C108.187 11.3438 107.265 9.97886 107.265 8.77991V8.70613C107.265 7.41496 107.984 6.16068 110.566 6.16068H110.659C113.093 6.16068 114.421 7.41496 114.421 8.70613Z" fill="white"/>
</svg>
