<svg width="538" height="542" viewBox="0 0 538 542" fill="none" xmlns="http://www.w3.org/2000/svg" id="lines">
    <path d="M16.9067 251.827L17.7524 250.981L21.1719 252.691L22.4497 253.362L22.4864 253.325L21.8062 252.057L20.0872 248.646L20.9329 247.801L26.9631 253.831L26.3105 254.483L22.9185 251.091C22.7959 250.969 22.655 250.822 22.4956 250.65C22.3363 250.479 22.177 250.307 22.0176 250.135C21.8583 249.952 21.702 249.777 21.5488 249.611C21.3956 249.434 21.2639 249.277 21.1535 249.143L21.126 249.17L22.0176 250.852L23.516 254.005L23.1023 254.419L19.9493 252.921L18.2579 252.038L18.2304 252.066C18.3591 252.182 18.5123 252.317 18.69 252.47C18.8616 252.617 19.0393 252.771 19.2231 252.93C19.4009 253.083 19.5755 253.239 19.7471 253.399C19.9187 253.558 20.0658 253.699 20.1883 253.822L23.5803 257.214L22.9369 257.857L16.9067 251.827Z" fill="#D0D0D0" />
    <path d="M30.5722 250.442C30.229 250.786 29.8429 251.025 29.4139 251.159C28.9849 251.294 28.5314 251.331 28.0534 251.27C27.5754 251.196 27.0852 251.025 26.5827 250.755C26.0801 250.473 25.5868 250.09 25.1027 249.606C24.6185 249.122 24.2417 248.634 23.972 248.144C23.7024 247.642 23.5369 247.158 23.4756 246.692C23.4143 246.214 23.4542 245.763 23.5951 245.341C23.7361 244.918 23.9781 244.535 24.3213 244.191C24.6584 243.854 25.0414 243.619 25.4704 243.484C25.8994 243.337 26.3498 243.297 26.8217 243.364C27.2935 243.419 27.7777 243.585 28.2741 243.861C28.7704 244.124 29.2576 244.495 29.7356 244.973C30.2198 245.457 30.5997 245.953 30.8755 246.462C31.1513 246.958 31.3229 247.449 31.3903 247.933C31.4577 248.405 31.4209 248.858 31.28 249.293C31.1451 249.722 30.9092 250.105 30.5722 250.442ZM29.9011 249.771C30.1279 249.545 30.278 249.278 30.3515 248.972C30.4251 248.665 30.4189 248.34 30.3331 247.997C30.2474 247.642 30.0911 247.277 29.8643 246.903C29.6315 246.523 29.3251 246.143 28.9451 245.763C28.5713 245.39 28.1975 245.089 27.8236 244.863C27.4498 244.636 27.0913 244.486 26.7481 244.412C26.4111 244.332 26.0924 244.332 25.7921 244.412C25.4857 244.486 25.2191 244.636 24.9924 244.863C24.7595 245.095 24.6063 245.365 24.5328 245.671C24.4592 245.966 24.4592 246.284 24.5328 246.627C24.6124 246.965 24.7656 247.32 24.9924 247.694C25.2191 248.068 25.5194 248.441 25.8932 248.815C26.2732 249.195 26.6531 249.502 27.0331 249.735C27.4069 249.961 27.7685 250.121 28.1178 250.213C28.4671 250.292 28.7919 250.298 29.0922 250.231C29.3986 250.157 29.6682 250.004 29.9011 249.771Z" fill="#D0D0D0" />
    <path d="M28.1326 240.601L29.7872 238.946C30.0936 238.64 30.4 238.389 30.7064 238.192C31.019 237.99 31.3223 237.858 31.6165 237.797C31.9168 237.73 32.2109 237.742 32.499 237.834C32.787 237.914 33.0628 238.085 33.3263 238.349C33.6266 238.649 33.8104 239.011 33.8778 239.433C33.9452 239.844 33.8472 240.273 33.5837 240.72L33.6204 240.757C34.1291 240.383 34.6255 240.193 35.1096 240.187C35.5937 240.181 36.0442 240.386 36.4609 240.803C36.755 241.097 36.9573 241.41 37.0676 241.741C37.1779 242.072 37.2055 242.412 37.1503 242.761C37.1013 243.104 36.9726 243.454 36.7642 243.809C36.562 244.158 36.2924 244.502 35.9553 244.839L34.1628 246.631L28.1326 240.601ZM32.2324 241.649C32.7472 241.134 33.026 240.677 33.0689 240.279C33.1179 239.875 32.9739 239.504 32.6368 239.167C32.3059 238.836 31.9505 238.719 31.5705 238.818C31.1906 238.903 30.7677 239.179 30.302 239.645L29.5114 240.435L31.4786 242.403L32.2324 241.649ZM35.2383 244.342C35.7592 243.821 36.0656 243.325 36.1575 242.853C36.2433 242.375 36.0809 241.931 35.6703 241.52C35.2965 241.146 34.8859 241.011 34.4386 241.116C33.9851 241.214 33.4917 241.529 32.9586 242.062L32.0485 242.973L34.3282 245.252L35.2383 244.342Z" fill="#D0D0D0" />
    <path d="M38.9484 240.54L40.4468 239.042L35.7127 234.308L34.2143 235.806L33.5709 235.163L37.3398 231.394L37.9832 232.037L36.4849 233.536L41.2189 238.27L42.7173 236.771L43.37 237.424L39.6011 241.193L38.9484 240.54Z" fill="#D0D0D0" />
    <path d="M39.4412 229.292L40.195 228.538L45.5725 233.916L48.5601 230.928L49.2127 231.581L45.4714 235.322L39.4412 229.292Z" fill="#D0D0D0" />
    <path d="M44.7784 223.955L48.5013 220.232L49.1448 220.876L46.194 223.826L48.0877 225.72L50.5788 223.229L51.2315 223.881L48.7403 226.373L50.9281 228.56L53.9708 225.518L54.6235 226.17L50.8086 229.985L44.7784 223.955Z" fill="#D0D0D0" />
    <path d="M61.9702 213.915L60.766 213.281C60.3247 213.048 59.8896 212.815 59.4607 212.582C59.0256 212.343 58.5843 212.098 58.137 211.847L58.1002 211.883C58.3515 212.331 58.5966 212.772 58.8356 213.207C59.0685 213.636 59.3013 214.071 59.5342 214.512L60.1685 215.717L61.9702 213.915ZM62.7791 214.338L60.5913 216.526L61.8507 218.943L61.0693 219.725L57.0706 211.663L57.9347 210.799L65.9965 214.797L65.1875 215.606L62.7791 214.338Z" fill="#D0D0D0" />
    <path d="M61.1944 207.539L63.0421 205.691C63.373 205.36 63.707 205.088 64.0441 204.873C64.3811 204.659 64.7151 204.527 65.046 204.478C65.377 204.417 65.7079 204.447 66.0388 204.57C66.3759 204.686 66.7099 204.91 67.0408 205.241C67.3595 205.56 67.5801 205.891 67.7026 206.234C67.8313 206.571 67.8742 206.914 67.8313 207.263C67.7884 207.613 67.6689 207.965 67.4728 208.32C67.2767 208.664 67.0132 209.001 66.6823 209.332L65.5976 210.416L67.9876 212.806L67.2246 213.569L61.1944 207.539ZM65.9561 208.808C66.4893 208.274 66.7834 207.784 66.8386 207.337C66.8937 206.877 66.7068 206.433 66.2778 206.004C65.8427 205.569 65.4107 205.4 64.9817 205.498C64.5527 205.584 64.0778 205.887 63.5569 206.408L62.5733 207.392L64.9725 209.791L65.9561 208.808Z" fill="#D0D0D0" />
    <path d="M66.7063 202.027L68.5539 200.179C68.8849 199.849 69.2189 199.576 69.5559 199.361C69.893 199.147 70.227 199.015 70.5579 198.966C70.8888 198.905 71.2197 198.935 71.5507 199.058C71.8877 199.174 72.2217 199.398 72.5526 199.729C72.8713 200.048 73.0919 200.379 73.2145 200.722C73.3432 201.059 73.3861 201.402 73.3432 201.751C73.3003 202.101 73.1808 202.453 72.9847 202.809C72.7886 203.152 72.5251 203.489 72.1941 203.82L71.1094 204.904L73.4995 207.294L72.7365 208.057L66.7063 202.027ZM71.4679 203.296C72.0011 202.763 72.2952 202.272 72.3504 201.825C72.4056 201.365 72.2186 200.921 71.7897 200.492C71.3546 200.057 70.9225 199.888 70.4935 199.986C70.0646 200.072 69.5896 200.376 69.0687 200.896L68.0851 201.88L70.4844 204.279L71.4679 203.296Z" fill="#D0D0D0" />
    <path d="M81.076 193.375L80.5704 191.27L78.7319 191.969L78.4562 191.399L80.1659 190.443L78.8147 188.889L79.2559 188.448L80.8002 189.79L81.7654 188.089L82.3354 188.365L81.6367 190.204L83.7418 190.709L83.6223 191.362L81.4713 191.105L81.7286 193.256L81.076 193.375Z" fill="#D0D0D0" />
    <path d="M87.8988 180.816L88.6617 180.053L92.9362 183.353C93.2058 183.599 93.4755 183.831 93.7451 184.052C94.0148 184.26 94.2844 184.481 94.554 184.714L94.5816 184.686C94.3978 184.368 94.2139 184.055 94.0301 183.749C93.8524 183.436 93.6685 183.124 93.4785 182.811L91.8882 179.952L92.4306 179.41L95.2894 181C95.5897 181.19 95.8961 181.38 96.2087 181.57C96.5212 181.748 96.8368 181.929 97.1555 182.112L97.1923 182.076C96.9594 181.806 96.7326 181.536 96.512 181.267C96.2914 180.997 96.0647 180.727 95.8318 180.458L92.5041 176.211L93.2303 175.485L98.3781 182.416L97.5324 183.261L94.315 181.423C94.0944 181.288 93.8738 181.147 93.6532 181C93.4326 180.853 93.2181 180.706 93.0097 180.559L92.9821 180.586C93.1231 180.801 93.2671 181.019 93.4142 181.239C93.5613 181.46 93.6992 181.683 93.8279 181.91L95.6939 185.1L94.8666 185.927L87.8988 180.816Z" fill="#D0D0D0" />
    <path d="M94.385 174.348L98.1079 170.626L98.7514 171.269L95.8006 174.22L97.6942 176.113L100.185 173.622L100.838 174.275L98.3469 176.766L100.535 178.954L103.577 175.911L104.23 176.564L100.415 180.379L94.385 174.348Z" fill="#D0D0D0" />
    <path d="M99.7865 168.947L101.441 167.292C101.748 166.986 102.054 166.735 102.36 166.539C102.673 166.336 102.976 166.205 103.27 166.143C103.571 166.076 103.865 166.088 104.153 166.18C104.441 166.26 104.717 166.431 104.98 166.695C105.281 166.995 105.464 167.357 105.532 167.779C105.599 168.19 105.501 168.619 105.238 169.066L105.274 169.103C105.783 168.729 106.279 168.539 106.764 168.533C107.248 168.527 107.698 168.732 108.115 169.149C108.409 169.443 108.611 169.756 108.722 170.087C108.832 170.418 108.859 170.758 108.804 171.107C108.755 171.45 108.627 171.8 108.418 172.155C108.216 172.504 107.946 172.848 107.609 173.185L105.817 174.977L99.7865 168.947ZM103.886 169.995C104.401 169.48 104.68 169.024 104.723 168.625C104.772 168.221 104.628 167.85 104.291 167.513C103.96 167.182 103.604 167.066 103.224 167.164C102.845 167.249 102.422 167.525 101.956 167.991L101.165 168.781L103.133 170.749L103.886 169.995ZM106.892 172.688C107.413 172.167 107.72 171.671 107.811 171.199C107.897 170.721 107.735 170.277 107.324 169.866C106.95 169.492 106.54 169.358 106.092 169.462C105.639 169.56 105.146 169.875 104.613 170.409L103.702 171.319L105.982 173.598L106.892 172.688Z" fill="#D0D0D0" />
    <path d="M110.143 168.022C110.596 168.022 111.044 167.942 111.485 167.783C111.92 167.618 112.303 167.369 112.634 167.038C113.063 166.61 113.305 166.19 113.36 165.779C113.409 165.362 113.287 165.007 112.992 164.713C112.839 164.56 112.683 164.458 112.524 164.409C112.358 164.354 112.19 164.339 112.018 164.363C111.84 164.382 111.653 164.428 111.457 164.501C111.267 164.569 111.062 164.645 110.841 164.731L109.6 165.218C109.386 165.31 109.159 165.39 108.92 165.457C108.681 165.525 108.436 165.562 108.185 165.568C107.94 165.568 107.695 165.525 107.449 165.439C107.198 165.347 106.962 165.191 106.742 164.97C106.515 164.743 106.352 164.483 106.254 164.189C106.156 163.895 106.123 163.591 106.153 163.279C106.184 162.954 106.279 162.632 106.438 162.314C106.604 161.989 106.83 161.682 107.118 161.394C107.498 161.014 107.918 160.736 108.378 160.558C108.831 160.374 109.279 160.282 109.72 160.282L109.812 161.183C109.438 161.201 109.083 161.281 108.746 161.422C108.408 161.551 108.09 161.765 107.789 162.065C107.422 162.433 107.21 162.804 107.155 163.178C107.094 163.545 107.201 163.867 107.477 164.143C107.624 164.29 107.78 164.385 107.946 164.428C108.111 164.458 108.283 164.465 108.461 164.446C108.638 164.416 108.819 164.363 109.003 164.29C109.187 164.216 109.371 164.143 109.554 164.069L110.768 163.591C111.025 163.481 111.283 163.395 111.54 163.334C111.797 163.26 112.049 163.23 112.294 163.242C112.539 163.242 112.781 163.294 113.02 163.398C113.259 163.49 113.489 163.646 113.709 163.867C113.948 164.106 114.123 164.379 114.233 164.685C114.344 164.992 114.387 165.316 114.362 165.66C114.331 165.997 114.23 166.343 114.059 166.698C113.881 167.048 113.627 167.388 113.296 167.719C112.855 168.16 112.367 168.488 111.834 168.702C111.307 168.911 110.768 169.015 110.216 169.015L110.143 168.022Z" fill="#D0D0D0" />
    <path d="M116.114 163.374L117.613 161.876L112.879 157.142L111.38 158.64L110.737 157.997L114.506 154.228L115.149 154.871L113.651 156.37L118.385 161.104L119.883 159.605L120.536 160.258L116.767 164.027L116.114 163.374Z" fill="#D0D0D0" />
    <path d="M118.39 151.63L116.405 153.616L115.761 152.972L120.505 148.229L121.148 148.872L119.162 150.858L124.549 156.245L123.777 157.017L118.39 151.63Z" fill="#D0D0D0" />
    <path d="M121.944 146.789L125.667 143.066L126.311 143.71L123.36 146.661L125.253 148.554L127.745 146.063L128.397 146.716L125.906 149.207L128.094 151.395L131.137 148.352L131.789 149.005L127.974 152.819L121.944 146.789Z" fill="#D0D0D0" />
    <path d="M136.194 138.257L135.689 136.152L133.85 136.85L133.575 136.28L135.284 135.324L133.933 133.771L134.374 133.33L135.919 134.672L136.884 132.971L137.454 133.247L136.755 135.085L138.86 135.591L138.741 136.244L136.59 135.986L136.847 138.137L136.194 138.257Z" fill="#D0D0D0" />
    <path d="M143.881 124.852L145.536 123.198C145.842 122.891 146.149 122.64 146.455 122.444C146.768 122.242 147.071 122.11 147.365 122.049C147.665 121.981 147.96 121.993 148.248 122.085C148.536 122.165 148.811 122.337 149.075 122.6C149.375 122.9 149.559 123.262 149.627 123.685C149.694 124.095 149.596 124.524 149.332 124.972L149.369 125.008C149.878 124.635 150.374 124.445 150.858 124.439C151.342 124.432 151.793 124.638 152.21 125.054C152.504 125.349 152.706 125.661 152.816 125.992C152.927 126.323 152.954 126.663 152.899 127.012C152.85 127.356 152.721 127.705 152.513 128.06C152.311 128.41 152.041 128.753 151.704 129.09L149.911 130.882L143.881 124.852ZM147.981 125.9C148.496 125.385 148.775 124.929 148.818 124.53C148.867 124.126 148.723 123.755 148.386 123.418C148.055 123.087 147.699 122.971 147.319 123.069C146.939 123.155 146.516 123.43 146.051 123.896L145.26 124.687L147.227 126.654L147.981 125.9ZM150.987 128.593C151.508 128.073 151.814 127.576 151.906 127.104C151.992 126.626 151.83 126.182 151.419 125.771C151.045 125.398 150.635 125.263 150.187 125.367C149.734 125.465 149.24 125.781 148.707 126.314L147.797 127.224L150.077 129.504L150.987 128.593Z" fill="#D0D0D0" />
    <path d="M152.987 121.464L153.989 120.462C154.461 119.99 154.725 119.536 154.78 119.101C154.835 118.654 154.666 118.234 154.274 117.842C153.876 117.444 153.471 117.29 153.061 117.382C152.656 117.468 152.218 117.747 151.746 118.219L150.744 119.221L152.987 121.464ZM158.687 122.107L154.688 121.013L153.612 122.089L156.159 124.635L155.396 125.398L149.366 119.368L151.241 117.493C151.547 117.186 151.86 116.935 152.178 116.739C152.491 116.537 152.807 116.411 153.125 116.362C153.45 116.307 153.772 116.334 154.09 116.445C154.409 116.555 154.725 116.766 155.037 117.079C155.509 117.551 155.763 118.05 155.8 118.577C155.837 119.104 155.702 119.625 155.396 120.14L159.56 121.234L158.687 122.107Z" fill="#D0D0D0" />
    <path d="M161.183 114.702L159.979 114.067C159.538 113.835 159.103 113.602 158.674 113.369C158.239 113.13 157.797 112.885 157.35 112.633L157.313 112.67C157.565 113.118 157.81 113.559 158.049 113.994C158.282 114.423 158.514 114.858 158.747 115.299L159.382 116.503L161.183 114.702ZM161.992 115.125L159.804 117.312L161.064 119.73L160.283 120.511L156.284 112.45L157.148 111.586L165.21 115.584L164.401 116.393L161.992 115.125Z" fill="#D0D0D0" />
    <path d="M160.233 108.501L161.014 107.719L166.778 109.567L168.616 110.192L168.635 110.174C168.322 109.885 167.988 109.594 167.633 109.3C167.277 108.994 166.94 108.681 166.622 108.363L163.496 105.237L164.222 104.511L170.253 110.541L169.471 111.323L163.708 109.475L161.869 108.85L161.851 108.868C162.176 109.168 162.51 109.466 162.853 109.76C163.196 110.042 163.524 110.339 163.836 110.652L166.989 113.805L166.263 114.531L160.233 108.501Z" fill="#D0D0D0" />
    <path d="M165.763 102.97L167.234 101.499C168.147 100.586 169.097 100.151 170.084 100.194C171.076 100.231 172.054 100.73 173.016 101.693C173.494 102.171 173.862 102.661 174.119 103.163C174.376 103.654 174.52 104.147 174.551 104.643C174.576 105.134 174.487 105.621 174.285 106.105C174.076 106.583 173.748 107.046 173.301 107.493L171.793 109L165.763 102.97ZM172.593 106.951C173.279 106.264 173.58 105.541 173.494 104.781C173.414 104.015 172.991 103.249 172.225 102.483C171.459 101.717 170.703 101.303 169.955 101.242C169.213 101.175 168.499 101.484 167.813 102.171L167.151 102.832L171.931 107.612L172.593 106.951Z" fill="#D0D0D0" />
    <path d="M176.744 102.744L178.243 101.246L173.509 96.5116L172.01 98.01L171.367 97.3665L175.136 93.5976L175.779 94.2411L174.281 95.7395L179.015 100.474L180.513 98.9752L181.166 99.6278L177.397 103.397L176.744 102.744Z" fill="#D0D0D0" />
    <path d="M176.768 91.965L177.55 91.1836L183.313 93.0313L185.152 93.6564L185.17 93.638C184.858 93.35 184.524 93.0589 184.168 92.7647C183.813 92.4583 183.476 92.1458 183.157 91.8271L180.032 88.7017L180.758 87.9755L186.788 94.0057L186.007 94.787L180.243 92.9394L178.405 92.3143L178.386 92.3327C178.711 92.633 179.045 92.9302 179.388 93.2243C179.731 93.5062 180.059 93.8035 180.372 94.116L183.525 97.269L182.799 97.9952L176.768 91.965Z" fill="#D0D0D0" />
    <path d="M185.02 89.744C184.536 89.2599 184.165 88.7604 183.907 88.2456C183.65 87.7186 183.506 87.2069 183.475 86.7105C183.445 86.2019 183.521 85.7147 183.705 85.2489C183.889 84.7709 184.177 84.3358 184.569 83.9436C184.771 83.7414 184.977 83.579 185.185 83.4564C185.393 83.3338 185.602 83.2419 185.81 83.1806C186.019 83.1071 186.218 83.0611 186.408 83.0428C186.604 83.0182 186.791 83.0091 186.968 83.0152L187.024 83.9344C186.717 83.9222 186.417 83.9589 186.123 84.0447C185.829 84.1305 185.534 84.3205 185.24 84.6147C184.958 84.8966 184.759 85.2122 184.643 85.5615C184.526 85.8985 184.493 86.257 184.542 86.637C184.585 87.0108 184.71 87.3938 184.919 87.786C185.133 88.1721 185.427 88.5521 185.801 88.9259C186.181 89.3058 186.564 89.6092 186.95 89.8359C187.336 90.0504 187.713 90.1883 188.081 90.2496C188.455 90.3047 188.816 90.2741 189.165 90.1577C189.515 90.0412 189.836 89.8359 190.131 89.5418C190.345 89.3273 190.514 89.0975 190.636 88.8523C190.753 88.6011 190.814 88.3621 190.82 88.1353L189.248 86.5634L188.044 87.7676L187.41 87.1334L189.322 85.2214L191.859 87.7585C191.859 88.1507 191.773 88.5674 191.601 89.0086C191.43 89.4499 191.148 89.8666 190.756 90.2588C190.376 90.6387 189.956 90.9176 189.496 91.0953C189.037 91.273 188.559 91.3465 188.062 91.3159C187.56 91.2791 187.051 91.132 186.536 90.8747C186.015 90.6112 185.51 90.2343 185.02 89.744Z" fill="#D0D0D0" />
    <path d="M196.825 77.6264L196.319 75.5214L194.481 76.22L194.205 75.6501L195.915 74.6941L194.563 73.1405L195.005 72.6993L196.549 74.0414L197.514 72.3408L198.084 72.6166L197.385 74.455L199.49 74.9606L199.371 75.6133L197.22 75.3559L197.477 77.5069L196.825 77.6264Z" fill="#D0D0D0" />
    <path d="M204.346 64.3874L205.817 62.9166C206.73 62.0035 207.68 61.5684 208.666 61.6113C209.659 61.6481 210.637 62.1475 211.599 63.1097C212.077 63.5877 212.445 64.0779 212.702 64.5804C212.959 65.0707 213.103 65.564 213.134 66.0604C213.158 66.5507 213.07 67.0379 212.867 67.522C212.659 68 212.331 68.4627 211.884 68.91L210.376 70.4176L204.346 64.3874ZM211.176 68.3677C211.862 67.6813 212.163 66.9582 212.077 66.1983C211.997 65.4323 211.574 64.6662 210.808 63.9002C210.042 63.1342 209.285 62.7205 208.538 62.6592C207.796 62.5918 207.082 62.9013 206.396 63.5877L205.734 64.2495L210.514 69.0296L211.176 68.3677Z" fill="#D0D0D0" />
    <path d="M210.134 58.5998L213.857 54.8769L214.5 55.5203L211.549 58.4711L213.443 60.3647L215.934 57.8736L216.587 58.5262L214.096 61.0174L216.283 63.2052L219.326 60.1625L219.979 60.8151L216.164 64.63L210.134 58.5998Z" fill="#D0D0D0" />
    <path d="M214.984 53.7498L215.793 52.9409L220.021 55.2206C220.487 55.478 220.916 55.7169 221.308 55.9376C221.7 56.1582 222.129 56.3911 222.595 56.6362L222.632 56.5994C222.509 56.3666 222.393 56.1459 222.282 55.9376C222.166 55.7231 222.05 55.5147 221.933 55.3125C221.823 55.1041 221.706 54.8958 221.584 54.6874C221.467 54.4729 221.345 54.2523 221.216 54.0256L218.927 49.8063L219.709 49.0249L223.827 56.9671L222.935 57.8588L214.984 53.7498Z" fill="#D0D0D0" />
    <path d="M221.157 47.5761L224.88 43.8532L225.524 44.4966L222.573 47.4474L224.467 49.341L226.958 46.8499L227.61 47.5026L225.119 49.9937L227.307 52.1815L230.35 49.1388L231.002 49.7914L227.188 53.6063L221.157 47.5761Z" fill="#D0D0D0" />
    <path d="M226.844 41.8896L227.598 41.1358L232.975 46.5134L235.963 43.5258L236.615 44.1785L232.874 47.9198L226.844 41.8896Z" fill="#D0D0D0" />
    <path d="M240.022 40.9923C239.679 41.3355 239.293 41.5745 238.864 41.7093C238.435 41.8442 237.981 41.8809 237.503 41.8196C237.025 41.7461 236.535 41.5745 236.033 41.3049C235.53 41.023 235.037 40.64 234.553 40.1558C234.069 39.6717 233.692 39.1845 233.422 38.6942C233.152 38.1917 232.987 37.7076 232.926 37.2418C232.864 36.7638 232.904 36.3134 233.045 35.8906C233.186 35.4677 233.428 35.0847 233.771 34.7415C234.108 34.4045 234.491 34.1685 234.92 34.0337C235.349 33.8866 235.8 33.8468 236.272 33.9142C236.744 33.9694 237.228 34.1348 237.724 34.4106C238.22 34.6741 238.708 35.0449 239.186 35.5229C239.67 36.007 240.05 36.5034 240.325 37.012C240.601 37.5084 240.773 37.9987 240.84 38.4828C240.908 38.9547 240.871 39.4082 240.73 39.8433C240.595 40.2723 240.359 40.6553 240.022 40.9923ZM239.351 40.3213C239.578 40.0945 239.728 39.828 239.802 39.5216C239.875 39.2151 239.869 38.8903 239.783 38.5472C239.697 38.1917 239.541 37.8271 239.314 37.4533C239.081 37.0733 238.775 36.6933 238.395 36.3134C238.021 35.9396 237.647 35.6393 237.274 35.4125C236.9 35.1858 236.541 35.0357 236.198 34.9621C235.861 34.8825 235.542 34.8825 235.242 34.9621C234.936 35.0357 234.669 35.1858 234.442 35.4126C234.209 35.6454 234.056 35.9151 233.983 36.2215C233.909 36.5156 233.909 36.8343 233.983 37.1775C234.062 37.5145 234.216 37.87 234.442 38.2438C234.669 38.6176 234.969 38.9915 235.343 39.3653C235.723 39.7452 236.103 40.0516 236.483 40.2845C236.857 40.5113 237.218 40.6706 237.568 40.7625C237.917 40.8422 238.242 40.8483 238.542 40.7809C238.849 40.7074 239.118 40.5542 239.351 40.3213Z" fill="#D0D0D0" />
    <path d="M237.573 31.1601L239.421 29.3124C239.752 28.9815 240.086 28.7088 240.423 28.4943C240.76 28.2798 241.094 28.148 241.425 28.099C241.756 28.0377 242.087 28.0684 242.418 28.1909C242.755 28.3074 243.089 28.5311 243.42 28.862C243.738 29.1806 243.959 29.5116 244.082 29.8547C244.21 30.1918 244.253 30.535 244.21 30.8843C244.167 31.2336 244.048 31.586 243.852 31.9414C243.656 32.2846 243.392 32.6217 243.061 32.9526L241.977 34.0373L244.367 36.4273L243.604 37.1903L237.573 31.1601ZM242.335 32.4286C242.868 31.8955 243.162 31.4052 243.217 30.9578C243.273 30.4982 243.086 30.0539 242.657 29.6249C242.222 29.1898 241.79 29.0213 241.361 29.1194C240.932 29.2052 240.457 29.5085 239.936 30.0294L238.952 31.013L241.351 33.4122L242.335 32.4286Z" fill="#D0D0D0" />
    <path d="M242.892 25.8413L243.738 24.9956L247.157 26.7053L248.435 27.3764L248.472 27.3396L247.792 26.0711L246.073 22.6607L246.918 21.815L252.949 27.8452L252.296 28.4979L248.904 25.1059C248.781 24.9833 248.64 24.8362 248.481 24.6646C248.322 24.493 248.162 24.3215 248.003 24.1499C247.844 23.966 247.688 23.7914 247.534 23.6259C247.381 23.4482 247.249 23.2919 247.139 23.1571L247.111 23.1847L248.003 24.8669L249.502 28.0199L249.088 28.4335L245.935 26.9352L244.243 26.0527L244.216 26.0803C244.345 26.1967 244.498 26.3315 244.676 26.4847C244.847 26.6318 245.025 26.785 245.209 26.9443C245.386 27.0975 245.561 27.2538 245.733 27.4132C245.904 27.5725 246.051 27.7134 246.174 27.836L249.566 31.228L248.922 31.8715L242.892 25.8413Z" fill="#D0D0D0" />
    <path d="M248.717 20.0169L252.439 16.294L253.083 16.9374L250.132 19.8882L252.026 21.7818L254.517 19.2907L255.17 19.9434L252.678 22.4345L254.866 24.6223L257.909 21.5796L258.562 22.2322L254.747 26.0471L248.717 20.0169Z" fill="#D0D0D0" />
    <path d="M268.915 0.925171L269.696 1.70652L267.848 7.47015L267.223 9.30863L267.242 9.32701C267.53 9.01447 267.821 8.68048 268.115 8.32504C268.421 7.9696 268.734 7.63255 269.052 7.31388L272.178 4.18847L272.904 4.91467L266.874 10.9449L266.092 10.1635L267.94 4.39989L268.565 2.56142L268.547 2.54303C268.247 2.86783 267.949 3.20182 267.655 3.545C267.373 3.88818 267.076 4.21605 266.764 4.52859L263.611 7.68158L262.884 6.95538L268.915 0.925171Z" fill="#D0D0D0" />
    <path d="M275.024 8.32145L273.038 6.3359L273.682 5.69243L278.425 10.4357L277.782 11.0792L275.796 9.09361L270.409 14.4804L269.637 13.7082L275.024 8.32145Z" fill="#D0D0D0" />
    <path d="M282.15 19.8783L284.255 19.3727L283.556 17.5342L284.126 17.2585L285.082 18.9682L286.636 17.617L287.077 18.0582L285.735 19.6025L287.436 20.5677L287.16 21.1377L285.321 20.439L284.816 22.5441L284.163 22.4246L284.421 20.2736L282.269 20.531L282.15 19.8783Z" fill="#D0D0D0" />
    <path d="M290.232 31.6741C290.232 32.1276 290.312 32.575 290.471 33.0162C290.637 33.4513 290.885 33.8344 291.216 34.1653C291.645 34.5943 292.064 34.8363 292.475 34.8915C292.892 34.9405 293.247 34.8179 293.541 34.5238C293.695 34.3706 293.796 34.2143 293.845 34.055C293.9 33.8895 293.915 33.721 293.891 33.5494C293.872 33.3717 293.826 33.1848 293.753 32.9887C293.685 32.7987 293.609 32.5934 293.523 32.3728L293.036 31.1318C292.944 30.9173 292.864 30.6906 292.797 30.4516C292.729 30.2126 292.693 29.9674 292.686 29.7162C292.686 29.471 292.729 29.2259 292.815 28.9808C292.907 28.7295 293.063 28.4936 293.284 28.273C293.511 28.0462 293.771 27.8838 294.065 27.7858C294.359 27.6877 294.663 27.654 294.975 27.6846C295.3 27.7153 295.622 27.8103 295.941 27.9696C296.265 28.1351 296.572 28.3618 296.86 28.6498C297.24 29.0298 297.519 29.4496 297.696 29.9092C297.88 30.3627 297.972 30.8101 297.972 31.2513L297.071 31.3432C297.053 30.9694 296.973 30.614 296.832 30.2769C296.704 29.9398 296.489 29.6212 296.189 29.3209C295.821 28.9532 295.45 28.7418 295.077 28.6866C294.709 28.6253 294.387 28.7326 294.111 29.0084C293.964 29.1554 293.869 29.3117 293.826 29.4772C293.796 29.6426 293.79 29.8142 293.808 29.9919C293.839 30.1697 293.891 30.3504 293.964 30.5343C294.038 30.7181 294.111 30.902 294.185 31.0858L294.663 32.2992C294.773 32.5566 294.859 32.814 294.92 33.0714C294.994 33.3288 295.024 33.58 295.012 33.8252C295.012 34.0703 294.96 34.3124 294.856 34.5514C294.764 34.7904 294.608 35.0202 294.387 35.2408C294.148 35.4798 293.875 35.6544 293.569 35.7648C293.263 35.8751 292.938 35.918 292.595 35.8934C292.257 35.8628 291.911 35.7617 291.556 35.5901C291.207 35.4124 290.866 35.1581 290.535 34.8271C290.094 34.3859 289.766 33.8987 289.552 33.3655C289.344 32.8385 289.239 32.2992 289.239 31.7477L290.232 31.6741Z" fill="#D0D0D0" />
    <path d="M300.745 34.0422L298.759 32.0566L299.403 31.4132L304.146 36.1564L303.502 36.7999L301.517 34.8143L296.13 40.2011L295.358 39.4289L300.745 34.0422Z" fill="#D0D0D0" />
    <path d="M302.984 40.7123L303.986 41.7142C304.458 42.1861 304.911 42.4496 305.346 42.5048C305.794 42.5599 306.214 42.3914 306.606 41.9992C307.004 41.6009 307.157 41.1964 307.065 40.7858C306.98 40.3813 306.701 39.9432 306.229 39.4713L305.227 38.4693L302.984 40.7123ZM302.34 46.4115L303.434 42.4129L302.359 41.3374L299.813 43.8836L299.05 43.1207L305.08 37.0905L306.955 38.9657C307.262 39.2721 307.513 39.5847 307.709 39.9033C307.911 40.2159 308.037 40.5315 308.086 40.8502C308.141 41.175 308.113 41.4967 308.003 41.8154C307.893 42.134 307.681 42.4496 307.369 42.7622C306.897 43.234 306.397 43.4884 305.87 43.5251C305.343 43.5619 304.822 43.4271 304.308 43.1207L303.214 47.2848L302.34 46.4115Z" fill="#D0D0D0" />
    <path d="M309.378 48.5406L310.013 47.3364C310.245 46.8952 310.478 46.46 310.711 46.0311C310.95 45.596 311.195 45.1547 311.447 44.7074L311.41 44.6706C310.962 44.9219 310.521 45.167 310.086 45.406C309.657 45.6389 309.222 45.8717 308.781 46.1046L307.577 46.7389L309.378 48.5406ZM308.955 49.3495L306.768 47.1617L304.35 48.4211L303.569 47.6397L311.63 43.6411L312.494 44.5051L308.496 52.5669L307.687 51.7579L308.955 49.3495Z" fill="#D0D0D0" />
    <path d="M316.177 49.4746L314.191 47.4891L314.835 46.8456L319.578 51.5889L318.935 52.2323L316.949 50.2468L311.562 55.6335L310.79 54.8614L316.177 49.4746Z" fill="#D0D0D0" />
    <path d="M320.65 52.6608L324.373 56.3837L323.73 57.0272L320.779 54.0764L318.885 55.9701L321.376 58.4612L320.724 59.1138L318.233 56.6227L316.045 58.8105L319.087 61.8532L318.435 62.5058L314.62 58.691L320.65 52.6608Z" fill="#D0D0D0" />
    <path d="M322.209 60.2501C322.693 59.766 323.193 59.3952 323.708 59.1378C324.235 58.8804 324.746 58.7364 325.243 58.7058C325.751 58.6751 326.239 58.7518 326.704 58.9356C327.182 59.1195 327.617 59.4075 328.01 59.7997C328.212 60.0019 328.374 60.2072 328.497 60.4156C328.619 60.6239 328.711 60.8323 328.773 61.0407C328.846 61.249 328.892 61.4482 328.91 61.6382C328.935 61.8343 328.944 62.0212 328.938 62.1989L328.019 62.2541C328.031 61.9476 327.994 61.6474 327.909 61.3532C327.823 61.059 327.633 60.7649 327.339 60.4707C327.057 60.1888 326.741 59.9897 326.392 59.8732C326.055 59.7568 325.696 59.7231 325.316 59.7721C324.942 59.815 324.559 59.9406 324.167 60.149C323.781 60.3635 323.401 60.6576 323.027 61.0315C322.647 61.4114 322.344 61.7944 322.117 62.1805C321.903 62.5666 321.765 62.9435 321.704 63.3112C321.649 63.685 321.679 64.0466 321.796 64.3959C321.912 64.7452 322.117 65.0669 322.411 65.3611C322.626 65.5756 322.856 65.7441 323.101 65.8667C323.352 65.9831 323.591 66.0444 323.818 66.0505L325.39 64.4786L324.186 63.2744L324.82 62.6401L326.732 64.5522L324.195 67.0892C323.803 67.0892 323.386 67.0035 322.945 66.8319C322.503 66.6603 322.087 66.3784 321.694 65.9862C321.315 65.6062 321.036 65.1864 320.858 64.7268C320.68 64.2672 320.607 63.7892 320.637 63.2928C320.674 62.7903 320.821 62.2816 321.079 61.7669C321.342 61.246 321.719 60.7404 322.209 60.2501Z" fill="#D0D0D0" />
    <path d="M328.374 68.1428L330.231 62.2413L331.04 63.0502L330.157 65.7528C330.041 66.1021 329.921 66.4483 329.799 66.7915C329.682 67.1286 329.563 67.4809 329.44 67.8486L329.477 67.8854C329.845 67.7628 330.203 67.6433 330.552 67.5269C330.902 67.4105 331.251 67.294 331.6 67.1776L334.257 66.2675L335.047 67.0581L329.146 68.9149L326.995 71.066L326.223 70.2938L328.374 68.1428Z" fill="#D0D0D0" />
    <path d="M338.736 76.4639L340.841 75.9583L340.142 74.1198L340.712 73.8441L341.668 75.5539L343.221 74.2026L343.663 74.6438L342.321 76.1881L344.021 77.1533L343.745 77.7233L341.907 77.0246L341.401 79.1297L340.749 79.0102L341.006 76.8592L338.855 77.1166L338.736 76.4639Z" fill="#D0D0D0" />
    <path d="M350.559 82.5513L351.322 83.3142L348.022 87.5887C347.777 87.8584 347.544 88.128 347.323 88.3976C347.115 88.6673 346.894 88.9369 346.661 89.2066L346.689 89.2341C347.008 89.0503 347.32 88.8664 347.627 88.6826C347.939 88.5049 348.252 88.321 348.564 88.1311L351.423 86.5408L351.965 87.0831L350.375 89.942C350.185 90.2422 349.995 90.5487 349.805 90.8612C349.628 91.1737 349.447 91.4893 349.263 91.808L349.3 91.8448C349.569 91.6119 349.839 91.3852 350.109 91.1645C350.378 90.9439 350.648 90.7172 350.918 90.4843L355.164 87.1567L355.891 87.8829L348.96 93.0306L348.114 92.1849L349.952 88.9676C350.087 88.7469 350.228 88.5263 350.375 88.3057C350.522 88.0851 350.669 87.8706 350.816 87.6622L350.789 87.6347C350.574 87.7756 350.357 87.9196 350.136 88.0667C349.916 88.2138 349.692 88.3517 349.465 88.4804L346.275 90.3464L345.448 89.5191L350.559 82.5513Z" fill="#D0D0D0" />
    <path d="M356.659 88.6698L360.382 92.3927L359.739 93.0362L356.788 90.0854L354.894 91.9791L357.385 94.4702L356.733 95.1229L354.242 92.6317L352.054 94.8195L355.096 97.8622L354.444 98.5149L350.629 94.7L356.659 88.6698Z" fill="#D0D0D0" />
    <path d="M361.693 93.7037L363.348 95.3583C363.654 95.6647 363.905 95.9711 364.101 96.2775C364.304 96.5901 364.435 96.8934 364.497 97.1876C364.564 97.4879 364.552 97.782 364.46 98.07C364.38 98.3581 364.209 98.6339 363.945 98.8974C363.645 99.1976 363.283 99.3815 362.86 99.4489C362.45 99.5163 362.021 99.4183 361.574 99.1547L361.537 99.1915C361.911 99.7002 362.101 100.197 362.107 100.681C362.113 101.165 361.908 101.615 361.491 102.032C361.197 102.326 360.884 102.528 360.553 102.639C360.222 102.749 359.882 102.777 359.533 102.721C359.19 102.672 358.84 102.544 358.485 102.335C358.136 102.133 357.792 101.863 357.455 101.526L355.663 99.7339L361.693 93.7037ZM360.645 97.8035C361.16 98.3182 361.616 98.5971 362.015 98.64C362.419 98.689 362.79 98.545 363.127 98.2079C363.458 97.877 363.574 97.5216 363.476 97.1416C363.391 96.7617 363.115 96.3388 362.649 95.8731L361.858 95.0825L359.891 97.0497L360.645 97.8035ZM357.952 100.809C358.473 101.33 358.969 101.637 359.441 101.729C359.919 101.814 360.363 101.652 360.774 101.241C361.148 100.868 361.282 100.457 361.178 100.01C361.08 99.5562 360.765 99.0628 360.231 98.5297L359.321 97.6196L357.042 99.8993L357.952 100.809Z" fill="#D0D0D0" />
    <path d="M362.25 103.692C362.25 104.146 362.33 104.593 362.489 105.034C362.655 105.469 362.903 105.852 363.234 106.183C363.663 106.612 364.083 106.854 364.493 106.91C364.91 106.959 365.265 106.836 365.559 106.542C365.713 106.389 365.814 106.232 365.863 106.073C365.918 105.908 365.933 105.739 365.909 105.567C365.89 105.39 365.844 105.203 365.771 105.007C365.703 104.817 365.627 104.611 365.541 104.391L365.054 103.15C364.962 102.935 364.882 102.709 364.815 102.47C364.747 102.231 364.711 101.985 364.705 101.734C364.705 101.489 364.747 101.244 364.833 100.999C364.925 100.748 365.081 100.512 365.302 100.291C365.529 100.064 365.789 99.9019 366.083 99.8038C366.378 99.7058 366.681 99.6721 366.993 99.7027C367.318 99.7333 367.64 99.8283 367.959 99.9877C368.283 100.153 368.59 100.38 368.878 100.668C369.258 101.048 369.537 101.468 369.714 101.927C369.898 102.381 369.99 102.828 369.99 103.269L369.089 103.361C369.071 102.987 368.991 102.632 368.85 102.295C368.722 101.958 368.507 101.639 368.207 101.339C367.839 100.971 367.468 100.76 367.095 100.705C366.727 100.643 366.405 100.751 366.129 101.026C365.982 101.173 365.887 101.33 365.844 101.495C365.814 101.661 365.808 101.832 365.826 102.01C365.857 102.188 365.909 102.368 365.982 102.552C366.056 102.736 366.129 102.92 366.203 103.104L366.681 104.317C366.791 104.575 366.877 104.832 366.938 105.089C367.012 105.347 367.042 105.598 367.03 105.843C367.03 106.088 366.978 106.33 366.874 106.569C366.782 106.808 366.626 107.038 366.405 107.259C366.166 107.498 365.893 107.672 365.587 107.783C365.281 107.893 364.956 107.936 364.613 107.911C364.276 107.881 363.929 107.78 363.574 107.608C363.225 107.43 362.884 107.176 362.553 106.845C362.112 106.404 361.784 105.917 361.57 105.384C361.362 104.857 361.257 104.317 361.257 103.766L362.25 103.692Z" fill="#D0D0D0" />
    <path d="M366.53 109.296L368.029 110.794L372.763 106.06L371.264 104.562L371.908 103.918L375.677 107.687L375.033 108.331L373.535 106.832L368.801 111.566L370.299 113.065L369.646 113.718L365.878 109.949L366.53 109.296Z" fill="#D0D0D0" />
    <path d="M377.907 111.204L375.921 109.219L376.565 108.575L381.308 113.319L380.665 113.962L378.679 111.977L373.292 117.363L372.52 116.591L377.907 111.204Z" fill="#D0D0D0" />
    <path d="M382.38 114.391L386.103 118.113L385.459 118.757L382.509 115.806L380.615 117.7L383.106 120.191L382.453 120.844L379.962 118.352L377.775 120.54L380.817 123.583L380.165 124.236L376.35 120.421L382.38 114.391Z" fill="#D0D0D0" />
    <path d="M390.177 127.905L392.282 127.4L391.583 125.561L392.153 125.286L393.109 126.995L394.663 125.644L395.104 126.085L393.762 127.63L395.463 128.595L395.187 129.165L393.348 128.466L392.843 130.571L392.19 130.452L392.448 128.301L390.297 128.558L390.177 127.905Z" fill="#D0D0D0" />
    <path d="M402.846 134.857L404.501 136.511C404.807 136.818 405.058 137.124 405.255 137.431C405.457 137.743 405.589 138.047 405.65 138.341C405.717 138.641 405.705 138.935 405.613 139.223C405.533 139.511 405.362 139.787 405.098 140.051C404.798 140.351 404.436 140.535 404.014 140.602C403.603 140.669 403.174 140.571 402.727 140.308L402.69 140.345C403.064 140.853 403.254 141.35 403.26 141.834C403.266 142.318 403.061 142.768 402.644 143.185C402.35 143.479 402.037 143.682 401.706 143.792C401.375 143.902 401.035 143.93 400.686 143.875C400.343 143.826 399.993 143.697 399.638 143.488C399.289 143.286 398.946 143.017 398.608 142.68L396.816 140.887L402.846 134.857ZM401.798 138.957C402.313 139.471 402.77 139.75 403.168 139.793C403.572 139.842 403.943 139.698 404.28 139.361C404.611 139.03 404.728 138.675 404.63 138.295C404.544 137.915 404.268 137.492 403.802 137.026L403.012 136.236L401.044 138.203L401.798 138.957ZM399.105 141.963C399.626 142.483 400.122 142.79 400.594 142.882C401.072 142.968 401.516 142.805 401.927 142.395C402.301 142.021 402.436 141.61 402.331 141.163C402.233 140.709 401.918 140.216 401.385 139.683L400.475 138.773L398.195 141.053L399.105 141.963Z" fill="#D0D0D0" />
    <path d="M405.867 143.595L406.869 144.597C407.341 145.069 407.794 145.333 408.229 145.388C408.677 145.443 409.096 145.274 409.489 144.882C409.887 144.484 410.04 144.079 409.948 143.669C409.863 143.264 409.584 142.826 409.112 142.354L408.11 141.352L405.867 143.595ZM405.223 149.294L406.317 145.296L405.242 144.22L402.696 146.767L401.933 146.004L407.963 139.973L409.838 141.849C410.144 142.155 410.396 142.468 410.592 142.786C410.794 143.099 410.92 143.414 410.969 143.733C411.024 144.058 410.996 144.38 410.886 144.698C410.776 145.017 410.564 145.333 410.252 145.645C409.78 146.117 409.28 146.371 408.753 146.408C408.226 146.445 407.705 146.31 407.191 146.004L406.097 150.168L405.223 149.294Z" fill="#D0D0D0" />
    <path d="M412.261 151.424L412.895 150.219C413.128 149.778 413.361 149.343 413.594 148.914C413.833 148.479 414.078 148.038 414.329 147.59L414.293 147.554C413.845 147.805 413.404 148.05 412.969 148.289C412.54 148.522 412.105 148.755 411.664 148.988L410.46 149.622L412.261 151.424ZM411.838 152.232L409.651 150.045L407.233 151.304L406.452 150.523L414.513 146.524L415.377 147.388L411.379 155.45L410.57 154.641L411.838 152.232Z" fill="#D0D0D0" />
    <path d="M418.095 150.105L418.876 150.887L417.028 156.65L416.403 158.489L416.422 158.507C416.71 158.195 417.001 157.861 417.295 157.505C417.601 157.15 417.914 156.813 418.233 156.494L421.358 153.369L422.084 154.095L416.054 160.125L415.273 159.344L417.12 153.58L417.745 151.742L417.727 151.723C417.427 152.048 417.13 152.382 416.835 152.725C416.554 153.068 416.256 153.396 415.944 153.709L412.791 156.862L412.065 156.136L418.095 150.105Z" fill="#D0D0D0" />
    <path d="M423.257 155.268L424.728 156.739C425.641 157.652 426.076 158.602 426.033 159.588C425.997 160.581 425.497 161.559 424.535 162.521C424.057 162.999 423.567 163.366 423.064 163.624C422.574 163.881 422.081 164.025 421.584 164.056C421.094 164.08 420.607 163.992 420.123 163.789C419.645 163.581 419.182 163.253 418.735 162.806L417.227 161.298L423.257 155.268ZM419.277 162.098C419.963 162.784 420.686 163.085 421.446 162.999C422.212 162.919 422.978 162.496 423.745 161.73C424.511 160.964 424.924 160.207 424.985 159.46C425.053 158.718 424.743 158.004 424.057 157.318L423.395 156.656L418.615 161.436L419.277 162.098Z" fill="#D0D0D0" />
    <path d="M423.116 165.882L424.614 167.38L429.348 162.646L427.85 161.147L428.493 160.504L432.262 164.273L431.619 164.916L430.12 163.418L425.386 168.152L426.885 169.65L426.232 170.303L422.463 166.534L423.116 165.882Z" fill="#D0D0D0" />
    <path d="M433.527 165.538L434.309 166.319L432.461 172.083L431.836 173.921L431.854 173.94C432.142 173.627 432.433 173.293 432.727 172.938C433.034 172.582 433.346 172.245 433.665 171.927L436.791 168.801L437.517 169.527L431.487 175.558L430.705 174.776L432.553 169.013L433.178 167.174L433.16 167.156C432.859 167.481 432.562 167.815 432.268 168.158C431.986 168.501 431.689 168.829 431.376 169.141L428.223 172.294L427.497 171.568L433.527 165.538Z" fill="#D0D0D0" />
    <path d="M435.38 173.421C435.865 172.937 436.364 172.566 436.879 172.309C437.406 172.052 437.918 171.908 438.414 171.877C438.923 171.846 439.41 171.923 439.876 172.107C440.354 172.291 440.789 172.579 441.181 172.971C441.383 173.173 441.546 173.378 441.668 173.587C441.791 173.795 441.883 174.004 441.944 174.212C442.017 174.42 442.063 174.619 442.082 174.809C442.106 175.005 442.115 175.192 442.109 175.37L441.19 175.425C441.202 175.119 441.166 174.819 441.08 174.524C440.994 174.23 440.804 173.936 440.51 173.642C440.228 173.36 439.912 173.161 439.563 173.044C439.226 172.928 438.867 172.894 438.488 172.943C438.114 172.986 437.731 173.112 437.338 173.32C436.952 173.535 436.572 173.829 436.199 174.203C435.819 174.583 435.515 174.966 435.289 175.352C435.074 175.738 434.936 176.115 434.875 176.482C434.82 176.856 434.85 177.218 434.967 177.567C435.083 177.916 435.289 178.238 435.583 178.532C435.797 178.747 436.027 178.915 436.272 179.038C436.523 179.154 436.762 179.216 436.989 179.222L438.561 177.65L437.357 176.446L437.991 175.811L439.903 177.723L437.366 180.26C436.974 180.26 436.557 180.175 436.116 180.003C435.675 179.832 435.258 179.55 434.866 179.157C434.486 178.777 434.207 178.358 434.029 177.898C433.851 177.438 433.778 176.96 433.809 176.464C433.845 175.962 433.992 175.453 434.25 174.938C434.513 174.417 434.89 173.912 435.38 173.421Z" fill="#D0D0D0" />
    <path d="M446.763 184.491L448.868 183.985L448.169 182.147L448.739 181.871L449.695 183.581L451.249 182.23L451.69 182.671L450.348 184.215L452.048 185.18L451.773 185.75L449.934 185.052L449.428 187.157L448.776 187.037L449.033 184.886L446.882 185.144L446.763 184.491Z" fill="#D0D0D0" />
    <path d="M459.266 191.277L460.737 192.748C461.65 193.661 462.085 194.611 462.042 195.597C462.006 196.59 461.506 197.568 460.544 198.53C460.066 199.008 459.576 199.375 459.073 199.633C458.583 199.89 458.09 200.034 457.593 200.065C457.103 200.089 456.616 200.001 456.132 199.798C455.654 199.59 455.191 199.262 454.744 198.815L453.236 197.307L459.266 191.277ZM455.286 198.107C455.972 198.793 456.695 199.094 457.455 199.008C458.221 198.928 458.988 198.505 459.754 197.739C460.52 196.973 460.933 196.216 460.994 195.469C461.062 194.727 460.752 194.013 460.066 193.327L459.404 192.665L454.624 197.445L455.286 198.107Z" fill="#D0D0D0" />
    <path d="M464.686 196.697L468.409 200.42L467.766 201.063L464.815 198.113L462.921 200.006L465.412 202.497L464.76 203.15L462.269 200.659L460.081 202.847L463.124 205.889L462.471 206.542L458.656 202.727L464.686 196.697Z" fill="#D0D0D0" />
    <path d="M469.169 201.179L469.977 201.988L467.698 206.217C467.44 206.682 467.201 207.111 466.981 207.504C466.76 207.896 466.527 208.325 466.282 208.79L466.319 208.827C466.552 208.705 466.772 208.588 466.981 208.478C467.195 208.361 467.404 208.245 467.606 208.129C467.814 208.018 468.023 207.902 468.231 207.779C468.445 207.663 468.666 207.54 468.893 207.412L473.112 205.123L473.893 205.904L465.951 210.022L465.06 209.131L469.169 201.179Z" fill="#D0D0D0" />
    <path d="M474.975 206.985L478.697 210.708L478.054 211.352L475.103 208.401L473.21 210.294L475.701 212.786L475.048 213.438L472.557 210.947L470.369 213.135L473.412 216.178L472.759 216.83L468.944 213.015L474.975 206.985Z" fill="#D0D0D0" />
    <path d="M480.293 212.304L481.047 213.058L475.67 218.435L478.657 221.423L478.004 222.075L474.263 218.334L480.293 212.304Z" fill="#D0D0D0" />
    <path d="M480.823 225.115C480.48 224.771 480.241 224.385 480.106 223.956C479.971 223.527 479.934 223.074 479.996 222.596C480.069 222.118 480.241 221.628 480.51 221.125C480.792 220.623 481.175 220.129 481.659 219.645C482.144 219.161 482.631 218.784 483.121 218.514C483.624 218.245 484.108 218.079 484.573 218.018C485.051 217.957 485.502 217.997 485.925 218.138C486.348 218.279 486.731 218.521 487.074 218.864C487.411 219.201 487.647 219.584 487.782 220.013C487.929 220.442 487.968 220.892 487.901 221.364C487.846 221.836 487.68 222.32 487.405 222.816C487.141 223.313 486.77 223.8 486.292 224.278C485.808 224.762 485.312 225.142 484.803 225.418C484.307 225.694 483.817 225.865 483.332 225.933C482.861 226 482.407 225.963 481.972 225.822C481.543 225.688 481.16 225.452 480.823 225.115ZM481.494 224.444C481.721 224.67 481.987 224.82 482.294 224.894C482.6 224.967 482.925 224.961 483.268 224.876C483.624 224.79 483.988 224.634 484.362 224.407C484.742 224.174 485.122 223.867 485.502 223.488C485.876 223.114 486.176 222.74 486.403 222.366C486.629 221.992 486.78 221.634 486.853 221.291C486.933 220.953 486.933 220.635 486.853 220.335C486.78 220.028 486.629 219.762 486.403 219.535C486.17 219.302 485.9 219.149 485.594 219.075C485.3 219.002 484.981 219.002 484.638 219.075C484.301 219.155 483.945 219.308 483.571 219.535C483.198 219.762 482.824 220.062 482.45 220.436C482.07 220.816 481.764 221.196 481.531 221.576C481.304 221.949 481.145 222.311 481.053 222.66C480.973 223.01 480.967 223.334 481.034 223.635C481.108 223.941 481.261 224.211 481.494 224.444Z" fill="#D0D0D0" />
    <path d="M490.287 222.298L492.135 224.146C492.466 224.477 492.739 224.811 492.953 225.148C493.168 225.485 493.3 225.819 493.349 226.15C493.41 226.481 493.379 226.812 493.257 227.143C493.14 227.48 492.917 227.814 492.586 228.144C492.267 228.463 491.936 228.684 491.593 228.806C491.256 228.935 490.913 228.978 490.563 228.935C490.214 228.892 489.862 228.773 489.506 228.577C489.163 228.38 488.826 228.117 488.495 227.786L487.41 226.701L485.02 229.091L484.257 228.328L490.287 222.298ZM489.019 227.06C489.552 227.593 490.042 227.887 490.49 227.942C490.949 227.997 491.394 227.811 491.823 227.382C492.258 226.946 492.426 226.514 492.328 226.085C492.242 225.656 491.939 225.181 491.418 224.661L490.435 223.677L488.035 226.076L489.019 227.06Z" fill="#D0D0D0" />
    <path d="M495.239 227.249L496.084 228.095L494.374 231.514L493.703 232.792L493.74 232.829L495.009 232.149L498.419 230.43L499.265 231.275L493.235 237.306L492.582 236.653L495.974 233.261C496.097 233.138 496.244 232.998 496.415 232.838C496.587 232.679 496.758 232.52 496.93 232.36C497.114 232.201 497.288 232.045 497.454 231.891C497.632 231.738 497.788 231.606 497.923 231.496L497.895 231.469L496.213 232.36L493.06 233.859L492.646 233.445L494.145 230.292L495.027 228.601L495 228.573C494.883 228.702 494.748 228.855 494.595 229.033C494.448 229.204 494.295 229.382 494.135 229.566C493.982 229.743 493.826 229.918 493.667 230.09C493.507 230.261 493.366 230.408 493.244 230.531L489.852 233.923L489.208 233.279L495.239 227.249Z" fill="#D0D0D0" />
    <path d="M500.695 232.706L504.418 236.429L503.775 237.072L500.824 234.122L498.93 236.015L501.421 238.506L500.769 239.159L498.278 236.668L496.09 238.856L499.133 241.898L498.48 242.551L494.665 238.736L500.695 232.706Z" fill="#D0D0D0" />
    <path d="M505.545 237.556L506.327 238.337L504.479 244.101L503.854 245.939L503.872 245.958C504.16 245.645 504.451 245.311 504.746 244.956C505.052 244.6 505.364 244.263 505.683 243.945L508.809 240.819L509.535 241.545L503.505 247.576L502.723 246.794L504.571 241.031L505.196 239.192L505.178 239.174C504.877 239.499 504.58 239.833 504.286 240.176C504.004 240.519 503.707 240.847 503.394 241.159L500.241 244.312L499.515 243.586L505.545 237.556Z" fill="#D0D0D0" />
    <path d="M511.655 244.952L509.669 242.967L510.312 242.323L515.056 247.066L514.412 247.71L512.427 245.724L507.04 251.111L506.268 250.339L511.655 244.952Z" fill="#D0D0D0" />
    <path d="M519.148 256.877L521.253 256.371L520.555 254.533L521.125 254.257L522.081 255.967L523.634 254.615L524.076 255.057L522.733 256.601L524.434 257.566L524.158 258.136L522.32 257.437L521.814 259.543L521.162 259.423L521.419 257.272L519.268 257.529L519.148 256.877Z" fill="#D0D0D0" />
    <path d="M533.867 268.372C533.414 268.372 532.966 268.452 532.525 268.611C532.09 268.777 531.707 269.025 531.376 269.356C530.947 269.785 530.705 270.205 530.65 270.615C530.601 271.032 530.724 271.388 531.018 271.682C531.171 271.835 531.327 271.936 531.487 271.985C531.652 272.04 531.821 272.056 531.992 272.031C532.17 272.013 532.357 271.967 532.553 271.893C532.743 271.826 532.948 271.749 533.169 271.663L534.41 271.176C534.624 271.084 534.851 271.005 535.09 270.937C535.329 270.87 535.574 270.833 535.825 270.827C536.07 270.827 536.316 270.87 536.561 270.956C536.812 271.047 537.048 271.204 537.269 271.424C537.495 271.651 537.658 271.912 537.756 272.206C537.854 272.5 537.888 272.803 537.857 273.116C537.826 273.441 537.731 273.762 537.572 274.081C537.406 274.406 537.18 274.712 536.892 275C536.512 275.38 536.092 275.659 535.632 275.837C535.179 276.021 534.731 276.112 534.29 276.112L534.198 275.212C534.572 275.193 534.928 275.114 535.265 274.973C535.602 274.844 535.92 274.629 536.221 274.329C536.588 273.961 536.8 273.591 536.855 273.217C536.916 272.849 536.809 272.527 536.533 272.252C536.386 272.105 536.23 272.01 536.064 271.967C535.899 271.936 535.727 271.93 535.55 271.948C535.372 271.979 535.191 272.031 535.007 272.105C534.823 272.178 534.64 272.252 534.456 272.325L533.242 272.803C532.985 272.914 532.727 272.999 532.47 273.061C532.213 273.134 531.961 273.165 531.716 273.152C531.471 273.152 531.229 273.1 530.99 272.996C530.751 272.904 530.521 272.748 530.301 272.527C530.062 272.288 529.887 272.016 529.777 271.709C529.666 271.403 529.624 271.078 529.648 270.735C529.679 270.398 529.78 270.052 529.951 269.696C530.129 269.347 530.383 269.007 530.714 268.676C531.156 268.235 531.643 267.907 532.176 267.692C532.703 267.484 533.242 267.38 533.794 267.38L533.867 268.372Z" fill="#D0D0D0" />
    <path d="M531.132 279.253L533.117 277.267L533.761 277.911L529.017 282.654L528.374 282.01L530.359 280.025L524.973 274.638L525.745 273.866L531.132 279.253Z" fill="#D0D0D0" />
    <path d="M524.094 281.86L523.092 282.862C522.62 283.334 522.357 283.787 522.301 284.222C522.246 284.669 522.415 285.089 522.807 285.482C523.205 285.88 523.61 286.033 524.02 285.941C524.425 285.855 524.863 285.576 525.335 285.105L526.337 284.103L524.094 281.86ZM518.395 281.216L522.393 282.31L523.469 281.235L520.922 278.688L521.685 277.925L527.716 283.956L525.84 285.831C525.534 286.137 525.221 286.388 524.903 286.585C524.59 286.787 524.275 286.912 523.956 286.961C523.631 287.017 523.309 286.989 522.991 286.879C522.672 286.768 522.357 286.557 522.044 286.244C521.572 285.773 521.318 285.273 521.281 284.746C521.244 284.219 521.379 283.698 521.685 283.183L517.521 282.09L518.395 281.216Z" fill="#D0D0D0" />
    <path d="M515.898 288.622L517.102 289.256C517.543 289.489 517.978 289.722 518.407 289.955C518.842 290.194 519.284 290.439 519.731 290.69L519.768 290.653C519.517 290.206 519.271 289.765 519.032 289.33C518.8 288.901 518.567 288.465 518.334 288.024L517.7 286.82L515.898 288.622ZM515.089 288.199L517.277 286.011L516.017 283.593L516.799 282.812L520.797 290.874L519.933 291.738L511.872 287.739L512.68 286.93L515.089 288.199Z" fill="#D0D0D0" />
    <path d="M514.596 295.788L516.582 293.803L517.225 294.446L512.482 299.189L511.838 298.546L513.824 296.56L508.437 291.174L509.209 290.401L514.596 295.788Z" fill="#D0D0D0" />
    <path d="M511.042 300.629L507.319 304.352L506.676 303.708L509.627 300.758L507.733 298.864L505.242 301.355L504.589 300.703L507.08 298.211L504.893 296.024L501.85 299.066L501.197 298.414L505.012 294.599L511.042 300.629Z" fill="#D0D0D0" />
    <path d="M503.085 302.556C503.569 303.04 503.94 303.539 504.197 304.054C504.455 304.581 504.599 305.093 504.63 305.589C504.66 306.098 504.584 306.585 504.4 307.051C504.216 307.529 503.928 307.964 503.536 308.356C503.333 308.558 503.128 308.721 502.92 308.843C502.711 308.966 502.503 309.058 502.295 309.119C502.086 309.193 501.887 309.239 501.697 309.257C501.501 309.282 501.314 309.291 501.136 309.285L501.081 308.365C501.388 308.378 501.688 308.341 501.982 308.255C502.276 308.169 502.57 307.979 502.865 307.685C503.146 307.403 503.346 307.088 503.462 306.738C503.579 306.401 503.612 306.043 503.563 305.663C503.52 305.289 503.395 304.906 503.186 304.514C502.972 304.128 502.678 303.748 502.304 303.374C501.924 302.994 501.541 302.691 501.155 302.464C500.769 302.249 500.392 302.111 500.024 302.05C499.65 301.995 499.289 302.026 498.939 302.142C498.59 302.259 498.268 302.464 497.974 302.758C497.76 302.973 497.591 303.202 497.469 303.447C497.352 303.699 497.291 303.938 497.285 304.164L498.857 305.736L500.061 304.532L500.695 305.166L498.783 307.078L496.246 304.541C496.246 304.149 496.332 303.732 496.503 303.291C496.675 302.85 496.957 302.433 497.349 302.041C497.729 301.661 498.149 301.382 498.609 301.204C499.068 301.027 499.546 300.953 500.043 300.984C500.545 301.021 501.054 301.168 501.568 301.425C502.089 301.689 502.595 302.066 503.085 302.556Z" fill="#D0D0D0" />
    <path d="M494.825 309.088L500.726 310.945L499.917 311.754L497.215 310.871C496.866 310.755 496.519 310.635 496.176 310.513C495.839 310.396 495.487 310.277 495.119 310.154L495.082 310.191C495.205 310.559 495.324 310.917 495.441 311.267C495.557 311.616 495.674 311.965 495.79 312.315L496.7 314.971L495.91 315.762L494.053 309.86L491.902 307.709L492.674 306.937L494.825 309.088Z" fill="#D0D0D0" />
    <path d="M485.768 320.185L486.274 322.29L488.112 321.592L488.388 322.162L486.678 323.118L488.03 324.671L487.588 325.112L486.044 323.77L485.079 325.471L484.509 325.195L485.208 323.357L483.103 322.851L483.222 322.198L485.373 322.456L485.116 320.305L485.768 320.185Z" fill="#D0D0D0" />
    <path d="M483.796 327.876L482.95 328.721L479.53 327.012L478.253 326.341L478.216 326.377L478.896 327.646L480.615 331.056L479.769 331.902L473.739 325.872L474.392 325.219L477.784 328.611C477.906 328.734 478.047 328.881 478.207 329.052C478.366 329.224 478.525 329.395 478.685 329.567C478.844 329.751 479 329.926 479.153 330.091C479.307 330.269 479.438 330.425 479.549 330.56L479.576 330.532L478.685 328.85L477.186 325.697L477.6 325.283L480.753 326.782L482.444 327.664L482.472 327.637C482.343 327.52 482.19 327.385 482.012 327.232C481.841 327.085 481.663 326.932 481.479 326.773C481.301 326.619 481.127 326.463 480.955 326.304C480.784 326.144 480.636 326.003 480.514 325.881L477.122 322.489L477.765 321.845L483.796 327.876Z" fill="#D0D0D0" />
    <path d="M470.13 329.26C470.473 328.917 470.859 328.678 471.288 328.543C471.717 328.408 472.171 328.372 472.649 328.433C473.127 328.506 473.617 328.678 474.12 328.948C474.622 329.229 475.115 329.612 475.6 330.097C476.084 330.581 476.461 331.068 476.73 331.558C477 332.061 477.165 332.545 477.227 333.011C477.288 333.489 477.248 333.939 477.107 334.362C476.966 334.785 476.724 335.168 476.381 335.511C476.044 335.848 475.661 336.084 475.232 336.219C474.803 336.366 474.352 336.406 473.881 336.338C473.409 336.283 472.925 336.118 472.428 335.842C471.932 335.578 471.445 335.208 470.967 334.73C470.482 334.245 470.102 333.749 469.827 333.24C469.551 332.744 469.379 332.254 469.312 331.77C469.245 331.298 469.281 330.844 469.422 330.409C469.557 329.98 469.793 329.597 470.13 329.26ZM470.801 329.931C470.574 330.158 470.424 330.424 470.351 330.731C470.277 331.037 470.283 331.362 470.369 331.705C470.455 332.061 470.611 332.425 470.838 332.799C471.071 333.179 471.377 333.559 471.757 333.939C472.131 334.313 472.505 334.613 472.879 334.84C473.252 335.067 473.611 335.217 473.954 335.29C474.291 335.37 474.61 335.37 474.91 335.29C475.217 335.217 475.483 335.067 475.71 334.84C475.943 334.607 476.096 334.337 476.169 334.031C476.243 333.737 476.243 333.418 476.169 333.075C476.09 332.738 475.937 332.382 475.71 332.009C475.483 331.635 475.183 331.261 474.809 330.887C474.429 330.507 474.049 330.201 473.669 329.968C473.295 329.741 472.934 329.582 472.584 329.49C472.235 329.41 471.91 329.404 471.61 329.472C471.304 329.545 471.034 329.698 470.801 329.931Z" fill="#D0D0D0" />
    <path d="M472.845 338.826L471.191 340.48C470.884 340.787 470.578 341.038 470.272 341.234C469.959 341.436 469.656 341.568 469.361 341.629C469.061 341.697 468.767 341.685 468.479 341.593C468.191 341.513 467.915 341.341 467.652 341.078C467.351 340.778 467.168 340.416 467.1 339.993C467.033 339.583 467.131 339.154 467.394 338.706L467.358 338.67C466.849 339.043 466.353 339.233 465.868 339.239C465.384 339.246 464.934 339.04 464.517 338.624C464.223 338.329 464.021 338.017 463.91 337.686C463.8 337.355 463.773 337.015 463.828 336.666C463.877 336.322 464.005 335.973 464.214 335.618C464.416 335.268 464.686 334.925 465.023 334.588L466.815 332.796L472.845 338.826ZM468.746 337.778C468.231 338.293 467.952 338.749 467.909 339.148C467.86 339.552 468.004 339.923 468.341 340.26C468.672 340.591 469.028 340.707 469.407 340.609C469.787 340.523 470.21 340.248 470.676 339.782L471.467 338.991L469.499 337.024L468.746 337.778ZM465.74 335.085C465.219 335.605 464.912 336.102 464.82 336.574C464.735 337.052 464.897 337.496 465.308 337.907C465.681 338.28 466.092 338.415 466.539 338.311C466.993 338.213 467.486 337.897 468.019 337.364L468.929 336.454L466.65 334.174L465.74 335.085Z" fill="#D0D0D0" />
    <path d="M462.305 338.611L460.807 340.109L465.541 344.843L467.039 343.345L467.683 343.988L463.914 347.757L463.271 347.114L464.769 345.615L460.035 340.881L458.536 342.38L457.884 341.727L461.653 337.958L462.305 338.611Z" fill="#D0D0D0" />
    <path d="M462.088 349.583L461.335 350.337L455.957 344.959L452.969 347.947L452.317 347.294L456.058 343.553L462.088 349.583Z" fill="#D0D0D0" />
    <path d="M457.027 354.644L453.304 358.367L452.66 357.724L455.611 354.773L453.718 352.879L451.227 355.371L450.574 354.718L453.065 352.227L450.877 350.039L447.835 353.082L447.182 352.429L450.997 348.614L457.027 354.644Z" fill="#D0D0D0" />
    <path d="M440.387 364.133L441.591 364.767C442.032 365 442.467 365.233 442.896 365.466C443.331 365.705 443.773 365.95 444.22 366.201L444.257 366.164C444.005 365.717 443.76 365.276 443.521 364.841C443.288 364.412 443.056 363.977 442.823 363.535L442.188 362.331L440.387 364.133ZM439.578 363.71L441.766 361.522L440.506 359.105L441.288 358.323L445.286 366.385L444.422 367.249L436.36 363.25L437.169 362.441L439.578 363.71Z" fill="#D0D0D0" />
    <path d="M441.438 370.233L439.591 372.081C439.26 372.412 438.926 372.684 438.589 372.899C438.251 373.113 437.918 373.245 437.587 373.294C437.256 373.355 436.925 373.325 436.594 373.202C436.257 373.086 435.923 372.862 435.592 372.531C435.273 372.212 435.053 371.882 434.93 371.538C434.801 371.201 434.758 370.858 434.801 370.509C434.844 370.159 434.964 369.807 435.16 369.452C435.356 369.108 435.619 368.771 435.95 368.44L437.035 367.356L434.645 364.966L435.408 364.203L441.438 370.233ZM436.677 368.964C436.143 369.498 435.849 369.988 435.794 370.435C435.739 370.895 435.926 371.339 436.355 371.768C436.79 372.203 437.222 372.372 437.651 372.274C438.08 372.188 438.555 371.885 439.076 371.364L440.059 370.38L437.66 367.981L436.677 368.964Z" fill="#D0D0D0" />
    <path d="M436.202 375.469L434.354 377.317C434.023 377.648 433.69 377.92 433.352 378.135C433.015 378.349 432.681 378.481 432.35 378.53C432.02 378.591 431.689 378.561 431.358 378.438C431.021 378.322 430.687 378.098 430.356 377.767C430.037 377.449 429.816 377.118 429.694 376.774C429.565 376.437 429.522 376.094 429.565 375.745C429.608 375.396 429.728 375.043 429.924 374.688C430.12 374.345 430.383 374.008 430.714 373.677L431.799 372.592L429.409 370.202L430.172 369.439L436.202 375.469ZM431.44 374.201C430.907 374.734 430.613 375.224 430.558 375.671C430.503 376.131 430.69 376.575 431.119 377.004C431.554 377.439 431.986 377.608 432.415 377.51C432.844 377.424 433.319 377.121 433.84 376.6L434.823 375.616L432.424 373.217L431.44 374.201Z" fill="#D0D0D0" />
    <path d="M422.384 383.57L422.89 385.675L424.728 384.976L425.004 385.546L423.294 386.502L424.645 388.055L424.204 388.497L422.66 387.155L421.694 388.855L421.125 388.579L421.823 386.741L419.718 386.235L419.838 385.583L421.989 385.84L421.731 383.689L422.384 383.57Z" fill="#D0D0D0" />
    <path d="M416.113 395.577L415.35 396.34L411.075 393.04C410.806 392.795 410.536 392.562 410.266 392.341C409.997 392.133 409.727 391.912 409.457 391.679L409.43 391.707C409.614 392.026 409.798 392.338 409.981 392.645C410.159 392.957 410.343 393.27 410.533 393.582L412.123 396.441L411.581 396.983L408.722 395.393C408.422 395.203 408.115 395.013 407.803 394.823C407.49 394.645 407.175 394.465 406.856 394.281L406.819 394.318C407.052 394.587 407.279 394.857 407.499 395.126C407.72 395.396 407.947 395.666 408.18 395.935L411.507 400.182L410.781 400.908L405.633 393.977L406.479 393.132L409.696 394.97C409.917 395.105 410.138 395.246 410.358 395.393C410.579 395.54 410.793 395.687 411.002 395.834L411.029 395.807C410.888 395.592 410.744 395.375 410.597 395.154C410.45 394.933 410.312 394.71 410.184 394.483L408.318 391.293L409.145 390.466L416.113 395.577Z" fill="#D0D0D0" />
    <path d="M409.902 401.769L406.179 405.492L405.536 404.848L408.487 401.898L406.593 400.004L404.102 402.495L403.449 401.842L405.94 399.351L403.753 397.164L400.71 400.206L400.057 399.554L403.872 395.739L409.902 401.769Z" fill="#D0D0D0" />
    <path d="M404.776 406.895L403.122 408.549C402.815 408.856 402.509 409.107 402.203 409.303C401.89 409.505 401.587 409.637 401.293 409.698C400.992 409.766 400.698 409.754 400.41 409.662C400.122 409.582 399.846 409.41 399.583 409.147C399.283 408.847 399.099 408.485 399.031 408.062C398.964 407.652 399.062 407.223 399.325 406.775L399.289 406.738C398.78 407.112 398.284 407.302 397.799 407.308C397.315 407.314 396.865 407.109 396.448 406.692C396.154 406.398 395.952 406.086 395.841 405.755C395.731 405.424 395.704 405.084 395.759 404.734C395.808 404.391 395.936 404.042 396.145 403.687C396.347 403.337 396.617 402.994 396.954 402.657L398.746 400.865L404.776 406.895ZM400.677 405.847C400.162 406.362 399.883 406.818 399.84 407.216C399.791 407.621 399.935 407.992 400.272 408.329C400.603 408.66 400.959 408.776 401.339 408.678C401.718 408.592 402.141 408.316 402.607 407.851L403.398 407.06L401.43 405.093L400.677 405.847ZM397.671 403.153C397.15 403.674 396.843 404.171 396.752 404.643C396.666 405.121 396.828 405.565 397.239 405.975C397.613 406.349 398.023 406.484 398.471 406.38C398.924 406.282 399.417 405.966 399.951 405.433L400.861 404.523L398.581 402.243L397.671 403.153Z" fill="#D0D0D0" />
    <path d="M394.696 407.544C394.243 407.544 393.795 407.623 393.354 407.783C392.919 407.948 392.536 408.196 392.205 408.527C391.776 408.956 391.534 409.376 391.479 409.787C391.43 410.203 391.552 410.559 391.846 410.853C392 411.006 392.156 411.107 392.315 411.156C392.481 411.212 392.649 411.227 392.821 411.202C392.999 411.184 393.185 411.138 393.382 411.064C393.572 410.997 393.777 410.92 393.997 410.835L395.238 410.347C395.453 410.256 395.68 410.176 395.919 410.108C396.158 410.041 396.403 410.004 396.654 409.998C396.899 409.998 397.144 410.041 397.389 410.127C397.641 410.219 397.877 410.375 398.097 410.596C398.324 410.822 398.486 411.083 398.584 411.377C398.682 411.671 398.716 411.975 398.686 412.287C398.655 412.612 398.56 412.934 398.401 413.252C398.235 413.577 398.008 413.883 397.72 414.171C397.34 414.551 396.921 414.83 396.461 415.008C396.007 415.192 395.56 415.284 395.119 415.284L395.027 414.383C395.401 414.365 395.756 414.285 396.093 414.144C396.43 414.015 396.749 413.801 397.049 413.5C397.417 413.133 397.628 412.762 397.684 412.388C397.745 412.02 397.638 411.699 397.362 411.423C397.215 411.276 397.058 411.181 396.893 411.138C396.728 411.107 396.556 411.101 396.378 411.12C396.201 411.15 396.02 411.202 395.836 411.276C395.652 411.349 395.468 411.423 395.284 411.496L394.071 411.974C393.814 412.085 393.556 412.171 393.299 412.232C393.041 412.305 392.79 412.336 392.545 412.324C392.3 412.324 392.058 412.272 391.819 412.168C391.58 412.076 391.35 411.919 391.129 411.699C390.89 411.46 390.716 411.187 390.605 410.881C390.495 410.574 390.452 410.249 390.477 409.906C390.507 409.569 390.608 409.223 390.78 408.867C390.958 408.518 391.212 408.178 391.543 407.847C391.984 407.406 392.471 407.078 393.005 406.864C393.532 406.655 394.071 406.551 394.622 406.551L394.696 407.544Z" fill="#D0D0D0" />
    <path d="M389 411.916L387.502 413.414L392.236 418.148L393.734 416.65L394.378 417.293L390.609 421.062L389.966 420.419L391.464 418.92L386.73 414.186L385.231 415.685L384.579 415.032L388.348 411.263L389 411.916Z" fill="#D0D0D0" />
    <path d="M387 423.384L388.986 421.399L389.629 422.042L384.886 426.785L384.242 426.142L386.228 424.156L380.841 418.77L381.613 417.998L387 423.384Z" fill="#D0D0D0" />
    <path d="M383.722 427.949L379.999 431.672L379.356 431.029L382.306 428.078L380.413 426.184L377.922 428.676L377.269 428.023L379.76 425.532L377.572 423.344L374.53 426.387L373.877 425.734L377.692 421.919L383.722 427.949Z" fill="#D0D0D0" />
    <path d="M370.023 435.93L370.529 438.035L372.367 437.337L372.643 437.907L370.933 438.863L372.285 440.416L371.843 440.857L370.299 439.515L369.334 441.216L368.764 440.94L369.462 439.102L367.357 438.596L367.477 437.943L369.628 438.201L369.371 436.05L370.023 435.93Z" fill="#D0D0D0" />
    <path d="M362.888 448.783L361.233 450.438C360.927 450.744 360.62 450.996 360.314 451.192C360.002 451.394 359.698 451.526 359.404 451.587C359.104 451.654 358.81 451.642 358.522 451.55C358.234 451.47 357.958 451.299 357.694 451.035C357.394 450.735 357.21 450.374 357.143 449.951C357.075 449.54 357.173 449.111 357.437 448.664L357.4 448.627C356.891 449.001 356.395 449.191 355.911 449.197C355.427 449.203 354.976 448.998 354.56 448.581C354.265 448.287 354.063 447.974 353.953 447.643C353.843 447.312 353.815 446.972 353.87 446.623C353.919 446.28 354.048 445.931 354.256 445.575C354.459 445.226 354.728 444.883 355.065 444.546L356.858 442.753L362.888 448.783ZM358.788 447.735C358.273 448.25 357.995 448.707 357.952 449.105C357.903 449.509 358.047 449.88 358.384 450.217C358.715 450.548 359.07 450.665 359.45 450.567C359.83 450.481 360.253 450.205 360.719 449.739L361.509 448.949L359.542 446.982L358.788 447.735ZM355.782 445.042C355.261 445.563 354.955 446.059 354.863 446.531C354.777 447.009 354.94 447.453 355.35 447.864C355.724 448.238 356.135 448.373 356.582 448.268C357.035 448.17 357.529 447.855 358.062 447.322L358.972 446.412L356.692 444.132L355.782 445.042Z" fill="#D0D0D0" />
    <path d="M354.058 451.896L353.056 452.898C352.584 453.37 352.32 453.823 352.265 454.258C352.21 454.706 352.378 455.125 352.771 455.518C353.169 455.916 353.574 456.069 353.984 455.977C354.389 455.892 354.827 455.613 355.299 455.141L356.301 454.139L354.058 451.896ZM348.358 451.252L352.357 452.346L353.433 451.271L350.886 448.725L351.649 447.962L357.679 453.992L355.804 455.867C355.498 456.173 355.185 456.425 354.867 456.621C354.554 456.823 354.238 456.949 353.92 456.998C353.595 457.053 353.273 457.025 352.955 456.915C352.636 456.805 352.32 456.593 352.008 456.281C351.536 455.809 351.282 455.309 351.245 454.782C351.208 454.255 351.343 453.734 351.649 453.22L347.485 452.126L348.358 451.252Z" fill="#D0D0D0" />
    <path d="M346.137 458.382L347.342 459.016C347.783 459.249 348.218 459.482 348.647 459.715C349.082 459.954 349.523 460.199 349.971 460.45L350.007 460.414C349.756 459.966 349.511 459.525 349.272 459.09C349.039 458.661 348.806 458.226 348.573 457.785L347.939 456.58L346.137 458.382ZM345.328 457.959L347.516 455.772L346.257 453.354L347.038 452.573L351.037 460.634L350.173 461.498L342.111 457.5L342.92 456.691L345.328 457.959Z" fill="#D0D0D0" />
    <path d="M347.364 464.308L346.582 465.089L340.819 463.241L338.98 462.616L338.962 462.635C339.274 462.923 339.608 463.214 339.964 463.508C340.319 463.814 340.656 464.127 340.975 464.446L344.1 467.571L343.374 468.297L337.344 462.267L338.125 461.486L343.889 463.333L345.727 463.958L345.746 463.94C345.421 463.64 345.087 463.342 344.744 463.048C344.401 462.766 344.073 462.469 343.76 462.157L340.607 459.004L341.333 458.277L347.364 464.308Z" fill="#D0D0D0" />
    <path d="M342.109 469.562L340.638 471.033C339.725 471.946 338.775 472.381 337.789 472.338C336.796 472.301 335.818 471.802 334.856 470.84C334.378 470.362 334.011 469.872 333.753 469.369C333.496 468.879 333.352 468.385 333.321 467.889C333.297 467.399 333.386 466.912 333.588 466.427C333.796 465.949 334.124 465.487 334.571 465.039L336.079 463.532L342.109 469.562ZM335.279 465.582C334.593 466.268 334.293 466.991 334.378 467.751C334.458 468.517 334.881 469.283 335.647 470.049C336.413 470.815 337.17 471.229 337.917 471.29C338.659 471.358 339.373 471.048 340.059 470.362L340.721 469.7L335.941 464.92L335.279 465.582Z" fill="#D0D0D0" />
    <path d="M331.404 469.513L329.905 471.011L334.639 475.745L336.138 474.247L336.781 474.89L333.012 478.659L332.369 478.016L333.867 476.517L329.133 471.783L327.635 473.281L326.982 472.629L330.751 468.86L331.404 469.513Z" fill="#D0D0D0" />
    <path d="M331.655 480.016L330.874 480.797L325.11 478.95L323.272 478.324L323.254 478.343C323.566 478.631 323.9 478.922 324.255 479.216C324.611 479.523 324.948 479.835 325.267 480.154L328.392 483.279L327.666 484.005L321.636 477.975L322.417 477.194L328.181 479.041L330.019 479.667L330.038 479.648C329.713 479.348 329.379 479.051 329.036 478.756C328.692 478.475 328.365 478.177 328.052 477.865L324.899 474.712L325.625 473.986L331.655 480.016Z" fill="#D0D0D0" />
    <path d="M323.68 481.961C324.164 482.445 324.535 482.945 324.792 483.459C325.05 483.986 325.194 484.498 325.224 484.995C325.255 485.503 325.178 485.99 324.994 486.456C324.811 486.934 324.523 487.369 324.13 487.761C323.928 487.964 323.723 488.126 323.514 488.249C323.306 488.371 323.098 488.463 322.889 488.524C322.681 488.598 322.482 488.644 322.292 488.662C322.096 488.687 321.909 488.696 321.731 488.69L321.676 487.771C321.982 487.783 322.283 487.746 322.577 487.66C322.871 487.575 323.165 487.385 323.459 487.09C323.741 486.809 323.94 486.493 324.057 486.144C324.173 485.807 324.207 485.448 324.158 485.068C324.115 484.694 323.989 484.311 323.781 483.919C323.567 483.533 323.272 483.153 322.899 482.779C322.519 482.399 322.136 482.096 321.75 481.869C321.363 481.655 320.987 481.517 320.619 481.455C320.245 481.4 319.883 481.431 319.534 481.547C319.185 481.664 318.863 481.869 318.569 482.163C318.354 482.378 318.186 482.608 318.063 482.853C317.947 483.104 317.886 483.343 317.88 483.57L319.451 485.142L320.656 483.937L321.29 484.572L319.378 486.484L316.841 483.947C316.841 483.554 316.927 483.138 317.098 482.696C317.27 482.255 317.552 481.839 317.944 481.446C318.324 481.066 318.744 480.787 319.203 480.61C319.663 480.432 320.141 480.359 320.637 480.389C321.14 480.426 321.648 480.573 322.163 480.83C322.684 481.094 323.19 481.471 323.68 481.961Z" fill="#D0D0D0" />
    <path d="M312.426 493.527L312.932 495.632L314.771 494.934L315.046 495.503L313.336 496.459L314.688 498.013L314.247 498.454L312.702 497.112L311.737 498.813L311.167 498.537L311.866 496.698L309.761 496.193L309.88 495.54L312.031 495.798L311.774 493.647L312.426 493.527Z" fill="#D0D0D0" />
    <path d="M305.457 506.215L303.986 507.685C303.073 508.598 302.123 509.034 301.136 508.991C300.143 508.954 299.166 508.454 298.204 507.492C297.726 507.014 297.358 506.524 297.101 506.022C296.843 505.531 296.699 505.038 296.669 504.542C296.644 504.051 296.733 503.564 296.935 503.08C297.144 502.602 297.471 502.139 297.919 501.692L299.426 500.184L305.457 506.215ZM298.627 502.234C297.94 502.921 297.64 503.644 297.726 504.404C297.806 505.17 298.228 505.936 298.994 506.702C299.76 507.468 300.517 507.881 301.265 507.943C302.006 508.01 302.72 507.701 303.407 507.014L304.069 506.352L299.289 501.572L298.627 502.234Z" fill="#D0D0D0" />
    <path d="M299.945 511.726L296.222 515.449L295.578 514.806L298.529 511.855L296.636 509.961L294.144 512.453L293.492 511.8L295.983 509.309L293.795 507.121L290.752 510.164L290.1 509.511L293.915 505.696L299.945 511.726Z" fill="#D0D0D0" />
    <path d="M295.371 516.301L294.562 517.11L290.333 514.83C289.867 514.572 289.438 514.333 289.046 514.113C288.654 513.892 288.225 513.659 287.759 513.414L287.723 513.451C287.845 513.684 287.961 513.904 288.072 514.113C288.188 514.327 288.305 514.536 288.421 514.738C288.531 514.946 288.648 515.155 288.77 515.363C288.887 515.578 289.009 515.798 289.138 516.025L291.427 520.244L290.646 521.026L286.527 513.083L287.419 512.192L295.371 516.301Z" fill="#D0D0D0" />
    <path d="M289.473 522.199L285.75 525.922L285.106 525.278L288.057 522.327L286.163 520.434L283.672 522.925L283.02 522.272L285.511 519.781L283.323 517.593L280.28 520.636L279.628 519.983L283.442 516.168L289.473 522.199Z" fill="#D0D0D0" />
    <path d="M265.97 541.959L265.216 541.205L270.593 535.828L267.606 532.84L268.259 532.187L272 535.929L265.97 541.959Z" fill="#D0D0D0" />
    <path d="M265.532 529.24C265.875 529.583 266.114 529.969 266.249 530.398C266.384 530.827 266.421 531.281 266.359 531.759C266.286 532.237 266.114 532.727 265.845 533.23C265.563 533.732 265.18 534.226 264.696 534.71C264.211 535.194 263.724 535.571 263.234 535.84C262.731 536.11 262.247 536.275 261.782 536.337C261.304 536.398 260.853 536.358 260.43 536.217C260.007 536.076 259.624 535.834 259.281 535.491C258.944 535.154 258.708 534.771 258.573 534.342C258.426 533.913 258.387 533.463 258.454 532.991C258.509 532.519 258.675 532.035 258.95 531.538C259.214 531.042 259.585 530.555 260.063 530.077C260.547 529.593 261.043 529.213 261.552 528.937C262.048 528.661 262.538 528.489 263.023 528.422C263.494 528.355 263.948 528.391 264.383 528.532C264.812 528.667 265.195 528.903 265.532 529.24ZM264.861 529.911C264.634 529.685 264.368 529.534 264.061 529.461C263.755 529.387 263.43 529.393 263.087 529.479C262.731 529.565 262.367 529.721 261.993 529.948C261.613 530.181 261.233 530.487 260.853 530.867C260.479 531.241 260.179 531.615 259.952 531.989C259.726 532.363 259.575 532.721 259.502 533.064C259.422 533.401 259.422 533.72 259.502 534.02C259.575 534.327 259.726 534.593 259.952 534.82C260.185 535.053 260.455 535.206 260.761 535.28C261.055 535.353 261.374 535.353 261.717 535.28C262.054 535.2 262.41 535.047 262.784 534.82C263.157 534.593 263.531 534.293 263.905 533.919C264.285 533.539 264.591 533.159 264.824 532.779C265.051 532.405 265.21 532.044 265.302 531.695C265.382 531.345 265.388 531.02 265.321 530.72C265.247 530.414 265.094 530.144 264.861 529.911Z" fill="#D0D0D0" />
    <path d="M256.159 532.149L254.312 530.301C253.981 529.97 253.708 529.636 253.494 529.299C253.279 528.962 253.147 528.628 253.098 528.297C253.037 527.966 253.068 527.635 253.19 527.304C253.307 526.967 253.53 526.633 253.861 526.302C254.18 525.984 254.511 525.763 254.854 525.64C255.191 525.512 255.534 525.469 255.884 525.512C256.233 525.555 256.585 525.674 256.941 525.87C257.284 526.066 257.621 526.33 257.952 526.661L259.037 527.745L261.427 525.355L262.19 526.118L256.159 532.149ZM257.428 527.387C256.895 526.854 256.405 526.56 255.957 526.504C255.498 526.449 255.053 526.636 254.624 527.065C254.189 527.5 254.021 527.932 254.119 528.361C254.205 528.79 254.508 529.265 255.029 529.786L256.012 530.77L258.412 528.37L257.428 527.387Z" fill="#D0D0D0" />
    <path d="M251.3 527.289L250.455 526.444L252.164 523.024L252.835 521.746L252.799 521.71L251.53 522.39L248.12 524.109L247.274 523.263L253.304 517.233L253.957 517.886L250.565 521.278C250.442 521.4 250.295 521.541 250.124 521.7C249.952 521.86 249.78 522.019 249.609 522.178C249.425 522.338 249.25 522.494 249.085 522.647C248.907 522.8 248.751 522.932 248.616 523.042L248.644 523.07L250.326 522.178L253.479 520.68L253.892 521.094L252.394 524.247L251.512 525.938L251.539 525.966C251.656 525.837 251.79 525.684 251.944 525.506C252.091 525.334 252.244 525.157 252.403 524.973C252.557 524.795 252.713 524.62 252.872 524.449C253.031 524.277 253.172 524.13 253.295 524.008L256.687 520.616L257.33 521.259L251.3 527.289Z" fill="#D0D0D0" />
    <path d="M245.935 521.925L242.213 518.202L242.856 517.558L245.807 520.509L247.7 518.615L245.209 516.124L245.862 515.472L248.353 517.963L250.541 515.775L247.498 512.732L248.151 512.08L251.966 515.894L245.935 521.925Z" fill="#D0D0D0" />
    <path d="M241.177 517.167L240.396 516.385L242.244 510.622L242.869 508.783L242.85 508.765C242.562 509.077 242.271 509.411 241.977 509.767C241.671 510.122 241.358 510.459 241.04 510.778L237.914 513.903L237.188 513.177L243.218 507.147L243.999 507.928L242.152 513.692L241.527 515.53L241.545 515.549C241.845 515.224 242.143 514.89 242.437 514.547C242.719 514.204 243.016 513.876 243.328 513.563L246.481 510.41L247.208 511.136L241.177 517.167Z" fill="#D0D0D0" />
    <path d="M235.16 509.862L237.146 511.848L236.502 512.491L231.759 507.748L232.402 507.104L234.388 509.09L239.775 503.703L240.547 504.475L235.16 509.862Z" fill="#D0D0D0" />
    <path d="M228.218 498.489L226.113 498.995L226.811 500.833L226.241 501.109L225.285 499.399L223.732 500.751L223.291 500.309L224.633 498.765L222.932 497.8L223.208 497.23L225.046 497.928L225.552 495.823L226.205 495.943L225.947 498.094L228.098 497.837L228.218 498.489Z" fill="#D0D0D0" />
    <path d="M220.319 486.877C220.319 486.424 220.24 485.976 220.08 485.535C219.915 485.1 219.667 484.717 219.336 484.386C218.907 483.957 218.487 483.715 218.076 483.66C217.66 483.611 217.304 483.733 217.01 484.028C216.857 484.181 216.756 484.337 216.707 484.496C216.652 484.662 216.636 484.83 216.661 485.002C216.679 485.18 216.725 485.367 216.799 485.563C216.866 485.753 216.943 485.958 217.029 486.179L217.516 487.42C217.608 487.634 217.687 487.861 217.755 488.1C217.822 488.339 217.859 488.584 217.865 488.835C217.865 489.08 217.822 489.325 217.736 489.571C217.644 489.822 217.488 490.058 217.268 490.278C217.041 490.505 216.78 490.668 216.486 490.766C216.192 490.864 215.889 490.897 215.576 490.867C215.251 490.836 214.93 490.741 214.611 490.582C214.286 490.416 213.98 490.19 213.692 489.901C213.312 489.522 213.033 489.102 212.855 488.642C212.671 488.189 212.579 487.741 212.579 487.3L213.48 487.208C213.499 487.582 213.578 487.937 213.719 488.274C213.848 488.612 214.062 488.93 214.363 489.23C214.73 489.598 215.101 489.81 215.475 489.865C215.843 489.926 216.164 489.819 216.44 489.543C216.587 489.396 216.682 489.24 216.725 489.074C216.756 488.909 216.762 488.737 216.744 488.559C216.713 488.382 216.661 488.201 216.587 488.017C216.514 487.833 216.44 487.649 216.367 487.466L215.889 486.252C215.778 485.995 215.693 485.737 215.631 485.48C215.558 485.223 215.527 484.971 215.539 484.726C215.539 484.481 215.591 484.239 215.696 484C215.788 483.761 215.944 483.531 216.164 483.311C216.403 483.072 216.676 482.897 216.983 482.787C217.289 482.676 217.614 482.633 217.957 482.658C218.294 482.689 218.64 482.79 218.996 482.961C219.345 483.139 219.685 483.393 220.016 483.724C220.457 484.165 220.785 484.653 221 485.186C221.208 485.713 221.312 486.252 221.312 486.804L220.319 486.877Z" fill="#D0D0D0" />
    <path d="M209.899 484.601L211.884 486.587L211.241 487.23L206.498 482.487L207.141 481.843L209.127 483.829L214.513 478.442L215.286 479.214L209.899 484.601Z" fill="#D0D0D0" />
    <path d="M207.751 478.023L206.749 477.021C206.278 476.549 205.824 476.286 205.389 476.23C204.942 476.175 204.522 476.344 204.13 476.736C203.731 477.134 203.578 477.539 203.67 477.949C203.756 478.354 204.035 478.792 204.507 479.264L205.508 480.266L207.751 478.023ZM208.395 472.324L207.301 476.322L208.377 477.398L210.923 474.852L211.686 475.615L205.656 481.645L203.78 479.769C203.474 479.463 203.223 479.151 203.027 478.832C202.824 478.519 202.699 478.204 202.65 477.885C202.594 477.56 202.622 477.238 202.732 476.92C202.843 476.601 203.054 476.286 203.367 475.973C203.839 475.501 204.338 475.247 204.865 475.21C205.392 475.173 205.913 475.308 206.428 475.615L207.522 471.45L208.395 472.324Z" fill="#D0D0D0" />
    <path d="M201.449 470.287L200.815 471.491C200.582 471.932 200.349 472.367 200.116 472.796C199.877 473.231 199.632 473.672 199.381 474.12L199.418 474.157C199.865 473.905 200.306 473.66 200.741 473.421C201.17 473.188 201.605 472.955 202.047 472.723L203.251 472.088L201.449 470.287ZM201.872 469.478L204.06 471.665L206.477 470.406L207.259 471.187L199.197 475.186L198.333 474.322L202.332 466.26L203.14 467.069L201.872 469.478Z" fill="#D0D0D0" />
    <path d="M194.742 469.444L196.728 471.43L196.084 472.073L191.341 467.33L191.984 466.687L193.97 468.672L199.357 463.286L200.129 464.058L194.742 469.444Z" fill="#D0D0D0" />
    <path d="M190.361 466.35L186.638 462.627L187.282 461.984L190.232 464.935L192.126 463.041L189.635 460.55L190.287 459.897L192.779 462.388L194.966 460.2L191.924 457.158L192.576 456.505L196.391 460.32L190.361 466.35Z" fill="#D0D0D0" />
    <path d="M188.894 458.853C188.41 459.337 187.91 459.708 187.395 459.965C186.868 460.222 186.357 460.366 185.86 460.397C185.352 460.428 184.864 460.351 184.399 460.167C183.921 459.983 183.486 459.695 183.093 459.303C182.891 459.101 182.729 458.896 182.606 458.687C182.484 458.479 182.392 458.271 182.33 458.062C182.257 457.854 182.211 457.655 182.193 457.465C182.168 457.269 182.159 457.082 182.165 456.904L183.084 456.849C183.072 457.155 183.109 457.456 183.195 457.75C183.28 458.044 183.47 458.338 183.764 458.632C184.046 458.914 184.362 459.113 184.711 459.23C185.048 459.346 185.407 459.38 185.787 459.331C186.161 459.288 186.544 459.162 186.936 458.954C187.322 458.739 187.702 458.445 188.076 458.071C188.456 457.691 188.759 457.308 188.986 456.922C189.2 456.536 189.338 456.159 189.399 455.792C189.455 455.418 189.424 455.056 189.307 454.707C189.191 454.358 188.986 454.036 188.692 453.742C188.477 453.527 188.247 453.359 188.002 453.236C187.751 453.12 187.512 453.059 187.285 453.052L185.713 454.624L186.917 455.828L186.283 456.463L184.371 454.551L186.908 452.014C187.3 452.014 187.717 452.099 188.158 452.271C188.6 452.443 189.016 452.725 189.409 453.117C189.789 453.497 190.067 453.916 190.245 454.376C190.423 454.836 190.496 455.314 190.466 455.81C190.429 456.313 190.282 456.821 190.024 457.336C189.761 457.857 189.384 458.363 188.894 458.853Z" fill="#D0D0D0" />
    <path d="M182.821 451.052L180.964 456.954L180.155 456.145L181.038 453.442C181.154 453.093 181.274 452.746 181.396 452.403C181.513 452.066 181.632 451.714 181.755 451.346L181.718 451.309C181.35 451.432 180.992 451.552 180.643 451.668C180.293 451.784 179.944 451.901 179.595 452.017L176.938 452.927L176.148 452.137L182.049 450.28L184.2 448.129L184.972 448.901L182.821 451.052Z" fill="#D0D0D0" />
    <path d="M172.643 442.915L170.538 443.42L171.237 445.259L170.667 445.535L169.711 443.825L168.157 445.176L167.716 444.735L169.058 443.191L167.358 442.225L167.633 441.655L169.472 442.354L169.977 440.249L170.63 440.368L170.373 442.52L172.524 442.262L172.643 442.915Z" fill="#D0D0D0" />
    <path d="M165.412 441.402L164.567 440.556L166.277 437.136L166.948 435.859L166.911 435.822L165.642 436.502L162.232 438.221L161.386 437.375L167.416 431.345L168.069 431.998L164.677 435.39C164.554 435.512 164.407 435.653 164.236 435.813C164.064 435.972 163.893 436.131 163.721 436.291C163.537 436.45 163.363 436.606 163.197 436.759C163.019 436.913 162.863 437.044 162.728 437.155L162.756 437.182L164.438 436.291L167.591 434.792L168.005 435.206L166.506 438.359L165.624 440.05L165.651 440.078C165.768 439.949 165.903 439.796 166.056 439.618C166.203 439.447 166.356 439.269 166.516 439.085C166.669 438.907 166.825 438.733 166.984 438.561C167.144 438.39 167.285 438.242 167.407 438.12L170.799 434.728L171.443 435.371L165.412 441.402Z" fill="#D0D0D0" />
    <path d="M164.488 428.196C164.831 428.539 165.07 428.925 165.205 429.354C165.339 429.783 165.376 430.236 165.315 430.714C165.241 431.192 165.07 431.683 164.8 432.185C164.518 432.688 164.135 433.181 163.651 433.665C163.167 434.149 162.68 434.526 162.189 434.796C161.687 435.066 161.203 435.231 160.737 435.292C160.259 435.354 159.809 435.314 159.386 435.173C158.963 435.032 158.58 434.79 158.237 434.447C157.9 434.109 157.664 433.727 157.529 433.298C157.382 432.869 157.342 432.418 157.409 431.946C157.465 431.474 157.63 430.99 157.906 430.494C158.169 429.997 158.54 429.51 159.018 429.032C159.502 428.548 159.999 428.168 160.507 427.892C161.004 427.617 161.494 427.445 161.978 427.378C162.45 427.31 162.903 427.347 163.339 427.488C163.768 427.623 164.151 427.859 164.488 428.196ZM163.817 428.867C163.59 428.64 163.323 428.49 163.017 428.416C162.71 428.343 162.386 428.349 162.042 428.435C161.687 428.521 161.322 428.677 160.949 428.904C160.569 429.136 160.189 429.443 159.809 429.823C159.435 430.197 159.135 430.57 158.908 430.944C158.681 431.318 158.531 431.677 158.457 432.02C158.378 432.357 158.378 432.675 158.457 432.976C158.531 433.282 158.681 433.549 158.908 433.776C159.141 434.008 159.41 434.162 159.717 434.235C160.011 434.309 160.33 434.309 160.673 434.235C161.01 434.155 161.365 434.002 161.739 433.776C162.113 433.549 162.487 433.248 162.861 432.875C163.241 432.495 163.547 432.115 163.78 431.735C164.007 431.361 164.166 430.999 164.258 430.65C164.337 430.301 164.344 429.976 164.276 429.676C164.203 429.369 164.049 429.1 163.817 428.867Z" fill="#D0D0D0" />
    <path d="M155.106 431.095L153.451 429.44C153.145 429.134 152.893 428.827 152.697 428.521C152.495 428.209 152.363 427.905 152.302 427.611C152.235 427.311 152.247 427.017 152.339 426.729C152.419 426.441 152.59 426.165 152.854 425.901C153.154 425.601 153.515 425.417 153.938 425.35C154.349 425.282 154.778 425.38 155.225 425.644L155.262 425.607C154.888 425.098 154.698 424.602 154.692 424.118C154.686 423.634 154.891 423.183 155.308 422.767C155.602 422.472 155.915 422.27 156.246 422.16C156.577 422.05 156.917 422.022 157.266 422.077C157.609 422.126 157.958 422.255 158.314 422.463C158.663 422.666 159.006 422.935 159.343 423.272L161.136 425.065L155.106 431.095ZM156.154 426.995C155.639 426.48 155.182 426.202 154.784 426.159C154.38 426.11 154.009 426.254 153.672 426.591C153.341 426.922 153.224 427.277 153.322 427.657C153.408 428.037 153.684 428.46 154.15 428.926L154.94 429.716L156.907 427.749L156.154 426.995ZM158.847 423.989C158.326 423.468 157.83 423.162 157.358 423.07C156.88 422.984 156.436 423.147 156.025 423.557C155.651 423.931 155.516 424.342 155.621 424.789C155.719 425.242 156.034 425.736 156.567 426.269L157.477 427.179L159.757 424.899L158.847 423.989Z" fill="#D0D0D0" />
    <path d="M155.505 420.739L154.006 419.24L149.272 423.974L150.771 425.473L150.127 426.116L146.358 422.347L147.002 421.704L148.5 423.202L153.234 418.468L151.736 416.97L152.388 416.317L156.157 420.086L155.505 420.739Z" fill="#D0D0D0" />
    <path d="M144.716 420.706L143.963 419.952L149.34 414.574L146.353 411.587L147.005 410.934L150.747 414.675L144.716 420.706Z" fill="#D0D0D0" />
    <path d="M139.839 415.828L136.116 412.105L136.759 411.462L139.71 414.412L141.604 412.519L139.113 410.028L139.765 409.375L142.256 411.866L144.444 409.678L141.401 406.636L142.054 405.983L145.869 409.798L139.839 415.828Z" fill="#D0D0D0" />
    <path d="M130.718 399.555L130.084 400.76C129.851 401.201 129.618 401.636 129.385 402.065C129.146 402.5 128.901 402.941 128.65 403.389L128.686 403.425C129.134 403.174 129.575 402.929 130.01 402.69C130.439 402.457 130.874 402.224 131.315 401.991L132.52 401.357L130.718 399.555ZM131.141 398.746L133.329 400.934L135.746 399.675L136.528 400.456L128.466 404.455L127.602 403.591L131.6 395.529L132.409 396.338L131.141 398.746Z" fill="#D0D0D0" />
    <path d="M124.802 400.791L122.954 398.943C122.623 398.612 122.35 398.278 122.136 397.941C121.921 397.604 121.79 397.27 121.741 396.939C121.679 396.608 121.71 396.277 121.832 395.946C121.949 395.609 122.173 395.275 122.504 394.944C122.822 394.626 123.153 394.405 123.496 394.283C123.833 394.154 124.177 394.111 124.526 394.154C124.875 394.197 125.228 394.316 125.583 394.512C125.926 394.708 126.263 394.972 126.594 395.303L127.679 396.388L130.069 393.998L130.832 394.761L124.802 400.791ZM126.07 396.029C125.537 395.496 125.047 395.202 124.599 395.147C124.14 395.092 123.695 395.278 123.266 395.707C122.831 396.143 122.663 396.575 122.761 397.004C122.847 397.432 123.15 397.907 123.671 398.428L124.655 399.412L127.054 397.013L126.07 396.029Z" fill="#D0D0D0" />
    <path d="M119.749 395.739L117.902 393.891C117.571 393.56 117.298 393.226 117.084 392.889C116.869 392.552 116.737 392.218 116.688 391.887C116.627 391.556 116.658 391.225 116.78 390.894C116.897 390.557 117.12 390.223 117.451 389.892C117.77 389.574 118.101 389.353 118.444 389.23C118.781 389.102 119.124 389.059 119.474 389.102C119.823 389.145 120.175 389.264 120.531 389.46C120.874 389.656 121.211 389.92 121.542 390.251L122.627 391.335L125.017 388.945L125.78 389.708L119.749 395.739ZM121.018 390.977C120.485 390.444 119.995 390.15 119.547 390.094C119.088 390.039 118.643 390.226 118.214 390.655C117.779 391.09 117.611 391.522 117.709 391.951C117.794 392.38 118.098 392.855 118.619 393.376L119.602 394.36L122.002 391.961L121.018 390.977Z" fill="#D0D0D0" />
    <path d="M112.017 382.288L109.912 382.794L110.61 384.632L110.04 384.908L109.084 383.198L107.531 384.549L107.089 384.108L108.432 382.564L106.731 381.599L107.007 381.029L108.845 381.727L109.351 379.622L110.003 379.742L109.746 381.893L111.897 381.635L112.017 382.288Z" fill="#D0D0D0" />
    <path d="M100.377 376.385L99.614 375.622L102.914 371.347C103.159 371.077 103.392 370.808 103.613 370.538C103.821 370.269 104.042 369.999 104.275 369.729L104.247 369.702C103.928 369.886 103.616 370.069 103.309 370.253C102.997 370.431 102.684 370.615 102.372 370.805L99.5129 372.395L98.9706 371.853L100.561 368.994C100.751 368.694 100.941 368.387 101.131 368.075C101.309 367.762 101.489 367.447 101.673 367.128L101.636 367.091C101.367 367.324 101.097 367.551 100.827 367.771C100.558 367.992 100.288 368.219 100.019 368.452L95.7716 371.779L95.0454 371.053L101.976 365.905L102.822 366.751L100.984 369.968C100.849 370.189 100.708 370.41 100.561 370.63C100.414 370.851 100.267 371.065 100.12 371.274L100.147 371.301C100.362 371.16 100.579 371.016 100.8 370.869C101.02 370.722 101.244 370.584 101.471 370.455L104.661 368.589L105.488 369.417L100.377 376.385Z" fill="#D0D0D0" />
    <path d="M94.3688 370.358L90.6459 366.635L91.2893 365.992L94.2401 368.942L96.1337 367.049L93.6426 364.558L94.2952 363.905L96.7864 366.396L98.9742 364.208L95.9315 361.166L96.5842 360.513L100.399 364.328L94.3688 370.358Z" fill="#D0D0D0" />
    <path d="M89.4269 365.416L87.7722 363.761C87.4658 363.455 87.2146 363.149 87.0185 362.842C86.8162 362.53 86.6845 362.226 86.6232 361.932C86.5558 361.632 86.568 361.338 86.66 361.05C86.7396 360.762 86.9112 360.486 87.1747 360.222C87.475 359.922 87.8366 359.738 88.2594 359.671C88.67 359.603 89.099 359.701 89.5464 359.965L89.5831 359.928C89.2093 359.42 89.0193 358.923 89.0132 358.439C89.0071 357.955 89.2124 357.504 89.6291 357.088C89.9233 356.794 90.2358 356.591 90.5667 356.481C90.8976 356.371 91.2378 356.343 91.5871 356.398C91.9303 356.447 92.2796 356.576 92.635 356.784C92.9843 356.987 93.3275 357.256 93.6646 357.593L95.4571 359.386L89.4269 365.416ZM90.4748 361.316C89.96 360.801 89.5035 360.523 89.1051 360.48C88.7007 360.431 88.3299 360.575 87.9929 360.912C87.6619 361.243 87.5455 361.598 87.6435 361.978C87.7293 362.358 88.0051 362.781 88.4709 363.247L89.2614 364.037L91.2286 362.07L90.4748 361.316ZM93.1682 358.31C92.6473 357.789 92.1509 357.483 91.679 357.391C91.201 357.305 90.7567 357.468 90.3461 357.878C89.9723 358.252 89.8375 358.663 89.9416 359.11C90.0397 359.564 90.3553 360.057 90.8885 360.59L91.7985 361.5L94.0782 359.22L93.1682 358.31Z" fill="#D0D0D0" />
    <path d="M88.9616 355.519C88.9616 355.066 88.882 354.619 88.7226 354.177C88.5572 353.742 88.309 353.359 87.9781 353.028C87.5491 352.599 87.1293 352.357 86.7187 352.302C86.302 352.253 85.9465 352.376 85.6524 352.67C85.4992 352.823 85.3981 352.979 85.349 353.139C85.2939 353.304 85.2786 353.473 85.3031 353.644C85.3215 353.822 85.3674 354.009 85.441 354.205C85.5084 354.395 85.585 354.6 85.6708 354.821L86.158 356.062C86.2499 356.276 86.3296 356.503 86.397 356.742C86.4644 356.981 86.5011 357.226 86.5073 357.477C86.5073 357.723 86.4644 357.968 86.3786 358.213C86.2867 358.464 86.1304 358.7 85.9098 358.921C85.683 359.147 85.4226 359.31 85.1284 359.408C84.8343 359.506 84.5309 359.54 84.2184 359.509C83.8936 359.478 83.5718 359.383 83.2532 359.224C82.9284 359.059 82.622 358.832 82.3339 358.544C81.954 358.164 81.6751 357.744 81.4974 357.284C81.3136 356.831 81.2216 356.384 81.2216 355.942L82.1225 355.85C82.1409 356.224 82.2205 356.58 82.3615 356.917C82.4902 357.254 82.7047 357.572 83.005 357.873C83.3727 358.24 83.7434 358.452 84.1172 358.507C84.4849 358.568 84.8067 358.461 85.0825 358.185C85.2295 358.038 85.3245 357.882 85.3674 357.716C85.3981 357.551 85.4042 357.379 85.3858 357.202C85.3552 357.024 85.3031 356.843 85.2295 356.659C85.156 356.475 85.0825 356.292 85.0089 356.108L84.5309 354.894C84.4206 354.637 84.3348 354.38 84.2735 354.122C84.2 353.865 84.1693 353.614 84.1816 353.368C84.1816 353.123 84.2337 352.881 84.3379 352.642C84.4298 352.403 84.5861 352.173 84.8067 351.953C85.0457 351.714 85.3184 351.539 85.6248 351.429C85.9312 351.318 86.256 351.276 86.5992 351.3C86.9363 351.331 87.2825 351.432 87.6379 351.603C87.9872 351.781 88.3274 352.036 88.6583 352.366C89.0995 352.808 89.4274 353.295 89.6419 353.828C89.8502 354.355 89.9544 354.894 89.9544 355.446L88.9616 355.519Z" fill="#D0D0D0" />
    <path d="M84.7735 350.008L83.2751 348.509L78.5411 353.243L80.0394 354.742L79.396 355.385L75.6271 351.616L76.2705 350.973L77.7689 352.471L82.503 347.737L81.0046 346.239L81.6573 345.586L85.4262 349.355L84.7735 350.008Z" fill="#D0D0D0" />
    <path d="M73.4888 348.191L75.4744 350.177L74.8309 350.82L70.0877 346.077L70.7311 345.433L72.7167 347.419L78.1034 342.032L78.8756 342.804L73.4888 348.191Z" fill="#D0D0D0" />
    <path d="M69.1077 345.097L65.3847 341.374L66.0282 340.73L68.979 343.681L70.8726 341.788L68.3815 339.296L69.0341 338.644L71.5253 341.135L73.7131 338.947L70.6704 335.904L71.323 335.252L75.1379 339.067L69.1077 345.097Z" fill="#D0D0D0" />
    <path d="M61.4943 331.766L59.3893 332.271L60.0879 334.11L59.518 334.386L58.562 332.676L57.0085 334.027L56.5672 333.586L57.9093 332.042L56.2087 331.076L56.4845 330.507L58.323 331.205L58.8286 329.1L59.4812 329.22L59.2238 331.371L61.3748 331.113L61.4943 331.766Z" fill="#D0D0D0" />
    <path d="M49.0091 324.998L47.3545 323.344C47.0481 323.037 46.7968 322.731 46.6007 322.424C46.3985 322.112 46.2667 321.809 46.2054 321.514C46.138 321.214 46.1503 320.92 46.2422 320.632C46.3218 320.344 46.4934 320.068 46.757 319.805C47.0572 319.504 47.4188 319.32 47.8417 319.253C48.2523 319.186 48.6812 319.284 49.1286 319.547L49.1654 319.51C48.7915 319.002 48.6016 318.505 48.5954 318.021C48.5893 317.537 48.7946 317.087 49.2113 316.67C49.5055 316.376 49.818 316.174 50.1489 316.063C50.4799 315.953 50.82 315.925 51.1693 315.981C51.5125 316.03 51.8618 316.158 52.2172 316.367C52.5665 316.569 52.9097 316.839 53.2468 317.176L55.0393 318.968L49.0091 324.998ZM50.057 320.898C49.5422 320.384 49.0857 320.105 48.6874 320.062C48.2829 320.013 47.9121 320.157 47.5751 320.494C47.2442 320.825 47.1277 321.18 47.2258 321.56C47.3116 321.94 47.5873 322.363 48.0531 322.829L48.8436 323.619L50.8108 321.652L50.057 320.898ZM52.7504 317.893C52.2295 317.372 51.7331 317.065 51.2612 316.973C50.7832 316.888 50.3389 317.05 49.9283 317.461C49.5545 317.834 49.4197 318.245 49.5239 318.692C49.6219 319.146 49.9375 319.639 50.4707 320.172L51.3807 321.082L53.6604 318.803L52.7504 317.893Z" fill="#D0D0D0" />
    <path d="M46.0803 316.352L45.0783 315.35C44.6065 314.878 44.153 314.614 43.7179 314.559C43.2705 314.504 42.8507 314.673 42.4585 315.065C42.0602 315.463 41.907 315.868 41.9989 316.278C42.0847 316.683 42.3635 317.121 42.8354 317.593L43.8374 318.595L46.0803 316.352ZM46.7238 310.653L45.6299 314.651L46.7054 315.727L49.2517 313.18L50.0147 313.943L43.9844 319.974L42.1092 318.098C41.8028 317.792 41.5515 317.479 41.3554 317.161C41.1532 316.848 41.0275 316.533 40.9785 316.214C40.9234 315.889 40.9509 315.567 41.0613 315.249C41.1716 314.93 41.383 314.614 41.6955 314.302C42.1674 313.83 42.6669 313.576 43.1939 313.539C43.7209 313.502 44.2418 313.637 44.7566 313.943L45.8505 309.779L46.7238 310.653Z" fill="#D0D0D0" />
    <path d="M39.7779 308.615L39.1436 309.82C38.9108 310.261 38.6779 310.696 38.445 311.125C38.206 311.56 37.9609 312.001 37.7096 312.449L37.7464 312.485C38.1938 312.234 38.635 311.989 39.0701 311.75C39.4991 311.517 39.9342 311.284 40.3754 311.051L41.5796 310.417L39.7779 308.615ZM40.2008 307.806L42.3886 309.994L44.8062 308.735L45.5875 309.516L37.5258 313.515L36.6617 312.651L40.6604 304.589L41.4693 305.398L40.2008 307.806Z" fill="#D0D0D0" />
    <path d="M34.0362 310.025L33.2549 309.244L35.1026 303.48L35.7276 301.642L35.7093 301.624C35.4212 301.936 35.1301 302.27 34.836 302.626C34.5296 302.981 34.217 303.318 33.8984 303.637L30.773 306.762L30.0468 306.036L36.077 300.006L36.8583 300.787L35.0106 306.551L34.3856 308.389L34.4039 308.408C34.7042 308.083 35.0015 307.749 35.2956 307.406C35.5775 307.062 35.8747 306.735 36.1873 306.422L39.3403 303.269L40.0665 303.995L34.0362 310.025Z" fill="#D0D0D0" />
    <path d="M28.9656 304.955L27.4949 303.484C26.5818 302.571 26.1467 301.621 26.1896 300.634C26.2263 299.642 26.7258 298.664 27.6879 297.702C28.1659 297.224 28.6562 296.856 29.1587 296.599C29.6489 296.342 30.1423 296.198 30.6387 296.167C31.1289 296.142 31.6161 296.231 32.1002 296.434C32.5783 296.642 33.0409 296.97 33.4883 297.417L34.9958 298.925L28.9656 304.955ZM32.9459 298.125C32.2596 297.439 31.5365 297.138 30.7766 297.224C30.0105 297.304 29.2445 297.727 28.4784 298.493C27.7124 299.259 27.2988 300.015 27.2375 300.763C27.1701 301.505 27.4795 302.219 28.1659 302.905L28.8278 303.567L33.6078 298.787L32.9459 298.125Z" fill="#D0D0D0" />
    <path d="M29.1991 294.433L27.7007 292.935L22.9666 297.669L24.465 299.167L23.8215 299.811L20.0526 296.042L20.6961 295.398L22.1945 296.897L26.9285 292.163L25.4302 290.664L26.0828 290.012L29.8517 293.781L29.1991 294.433Z" fill="#D0D0D0" />
    <path d="M18.8796 294.869L18.0982 294.087L19.9459 288.324L20.571 286.485L20.5526 286.467C20.2646 286.779 19.9735 287.113 19.6793 287.469C19.3729 287.824 19.0604 288.161 18.7417 288.48L15.6163 291.605L14.8901 290.879L20.9203 284.849L21.7017 285.63L19.854 291.394L19.2289 293.233L19.2473 293.251C19.5476 292.926 19.8448 292.592 20.139 292.249C20.4209 291.906 20.7181 291.578 21.0306 291.265L24.1836 288.112L24.9098 288.839L18.8796 294.869Z" fill="#D0D0D0" />
    <path d="M17.1182 287.077C16.6341 287.561 16.1347 287.932 15.6199 288.19C15.0928 288.447 14.5811 288.591 14.0848 288.622C13.5761 288.652 13.0889 288.576 12.6232 288.392C12.1452 288.208 11.71 287.92 11.3178 287.528C11.1156 287.325 10.9532 287.12 10.8306 286.912C10.7081 286.703 10.6162 286.495 10.5549 286.287C10.4813 286.078 10.4354 285.879 10.417 285.689C10.3925 285.493 10.3833 285.306 10.3894 285.128L11.3087 285.073C11.2964 285.38 11.3332 285.68 11.419 285.974C11.5048 286.268 11.6947 286.562 11.9889 286.857C12.2708 287.138 12.5864 287.338 12.9357 287.454C13.2728 287.571 13.6313 287.604 14.0112 287.555C14.385 287.512 14.768 287.387 15.1603 287.178C15.5463 286.964 15.9263 286.67 16.3001 286.296C16.6801 285.916 16.9834 285.533 17.2102 285.147C17.4246 284.761 17.5625 284.384 17.6238 284.016C17.679 283.642 17.6483 283.281 17.5319 282.931C17.4155 282.582 17.2102 282.26 16.916 281.966C16.7015 281.752 16.4717 281.583 16.2266 281.461C15.9753 281.344 15.7363 281.283 15.5096 281.277L13.9377 282.849L15.1419 284.053L14.5076 284.687L12.5956 282.775L15.1327 280.238C15.5249 280.238 15.9416 280.324 16.3828 280.495C16.8241 280.667 17.2408 280.949 17.633 281.341C18.013 281.721 18.2918 282.141 18.4695 282.601C18.6473 283.06 18.7208 283.538 18.6901 284.035C18.6534 284.537 18.5063 285.046 18.2489 285.56C17.9854 286.081 17.6085 286.587 17.1182 287.077Z" fill="#D0D0D0" />
    <path d="M5.91988 276.191L3.81484 276.697L4.51347 278.535L3.94353 278.811L2.98752 277.101L1.434 278.453L0.99277 278.012L2.33485 276.467L0.634277 275.502L0.910044 274.932L2.74853 275.631L3.2541 273.526L3.90675 273.645L3.64938 275.796L5.80039 275.539L5.91988 276.191Z" fill="#D0D0D0" />
    <path d="M142.77 163.339L485.203 255.094L268.109 38L142.77 163.339Z" fill="#D0D0D0" />
    <path d="M134.605 171.504L39.1094 267H491L134.605 171.504Z" fill="#D0D0D0" />
    <path d="M39 277H490.918L133.234 371.234L39 277Z" fill="#D0D0D0" />
    <path d="M141.399 379.399L268.109 506.109L487.579 286.64L141.399 379.399Z" fill="#D0D0D0" />
</svg>