<svg width="375" height="660" viewBox="0 0 375 660" fill="none" xmlns="http://www.w3.org/2000/svg">
<mask id="mask0" mask-type="alpha" maskUnits="userSpaceOnUse" x="0" y="0" width="375" height="660">
<rect width="375" height="660" fill="url(#paint0_radial)"/>
</mask>
<g mask="url(#mask0)">
<rect x="0.5" y="-0.5" width="34" height="55.1667" stroke="#313131"/>
<rect x="34.5" y="-0.5" width="34" height="55.1667" stroke="#313131"/>
<rect x="68.5" y="-0.5" width="34" height="55.1667" stroke="#313131"/>
<rect x="102.5" y="-0.5" width="34" height="55.1667" stroke="#313131"/>
<rect x="136.5" y="-0.5" width="34" height="55.1667" stroke="#313131"/>
<rect x="170.5" y="-0.5" width="34" height="55.1667" stroke="#313131"/>
<rect x="204.5" y="-0.5" width="34" height="55.1667" stroke="#313131"/>
<rect x="238.5" y="-0.5" width="34" height="55.1667" stroke="#313131"/>
<rect x="272.5" y="-0.5" width="34" height="55.1667" stroke="#313131"/>
<rect x="306.5" y="-0.5" width="34" height="55.1667" stroke="#313131"/>
<rect x="340.5" y="-0.5" width="34" height="55.1667" stroke="#313131"/>
<rect x="0.5" y="54.5" width="34" height="55.1667" stroke="#313131"/>
<rect x="34.5" y="54.5" width="34" height="55.1667" stroke="#313131"/>
<rect x="68.5" y="54.5" width="34" height="55.1667" stroke="#313131"/>
<rect x="102.5" y="54.5" width="34" height="55.1667" stroke="#313131"/>
<rect x="136.5" y="54.5" width="34" height="55.1667" stroke="#313131"/>
<rect x="170.5" y="54.5" width="34" height="55.1667" stroke="#313131"/>
<rect x="204.5" y="54.5" width="34" height="55.1667" stroke="#313131"/>
<rect x="238.5" y="54.5" width="34" height="55.1667" stroke="#313131"/>
<rect x="272.5" y="54.5" width="34" height="55.1667" stroke="#313131"/>
<rect x="306.5" y="54.5" width="34" height="55.1667" stroke="#313131"/>
<rect x="340.5" y="54.5" width="34" height="55.1667" stroke="#313131"/>
<rect x="0.5" y="109.5" width="34" height="55.1667" stroke="#313131"/>
<rect x="34.5" y="109.5" width="34" height="55.1667" stroke="#313131"/>
<rect x="68.5" y="109.5" width="34" height="55.1667" stroke="#313131"/>
<rect x="102.5" y="109.5" width="34" height="55.1667" stroke="#313131"/>
<rect x="136.5" y="109.5" width="34" height="55.1667" stroke="#313131"/>
<rect x="170.5" y="109.5" width="34" height="55.1667" stroke="#313131"/>
<rect x="204.5" y="109.5" width="34" height="55.1667" stroke="#313131"/>
<rect x="238.5" y="109.5" width="34" height="55.1667" stroke="#313131"/>
<rect x="272.5" y="109.5" width="34" height="55.1667" stroke="#313131"/>
<rect x="306.5" y="109.5" width="34" height="55.1667" stroke="#313131"/>
<rect x="340.5" y="109.5" width="34" height="55.1667" stroke="#313131"/>
<rect x="0.5" y="164.5" width="34" height="55.1667" stroke="#313131"/>
<rect x="34.5" y="164.5" width="34" height="55.1667" stroke="#313131"/>
<rect x="68.5" y="164.5" width="34" height="55.1667" stroke="#313131"/>
<rect x="102.5" y="164.5" width="34" height="55.1667" stroke="#313131"/>
<rect x="136.5" y="164.5" width="34" height="55.1667" stroke="#313131"/>
<rect x="170.5" y="164.5" width="34" height="55.1667" stroke="#313131"/>
<rect x="204.5" y="164.5" width="34" height="55.1667" stroke="#313131"/>
<rect x="238.5" y="164.5" width="34" height="55.1667" stroke="#313131"/>
<rect x="272.5" y="164.5" width="34" height="55.1667" stroke="#313131"/>
<rect x="306.5" y="164.5" width="34" height="55.1667" stroke="#313131"/>
<rect x="340.5" y="164.5" width="34" height="55.1667" stroke="#313131"/>
<rect x="0.5" y="219.5" width="34" height="55.1667" stroke="#313131"/>
<rect x="34.5" y="219.5" width="34" height="55.1667" stroke="#313131"/>
<rect x="68.5" y="219.5" width="34" height="55.1667" stroke="#313131"/>
<rect x="102.5" y="219.5" width="34" height="55.1667" stroke="#313131"/>
<rect x="136.5" y="219.5" width="34" height="55.1667" stroke="#313131"/>
<rect x="170.5" y="219.5" width="34" height="55.1667" stroke="#313131"/>
<rect x="204.5" y="219.5" width="34" height="55.1667" stroke="#313131"/>
<rect x="238.5" y="219.5" width="34" height="55.1667" stroke="#313131"/>
<rect x="272.5" y="219.5" width="34" height="55.1667" stroke="#313131"/>
<rect x="306.5" y="219.5" width="34" height="55.1667" stroke="#313131"/>
<rect x="340.5" y="219.5" width="34" height="55.1667" stroke="#313131"/>
<rect x="0.5" y="274.5" width="34" height="55.1667" stroke="#313131"/>
<rect x="34.5" y="274.5" width="34" height="55.1667" stroke="#313131"/>
<rect x="68.5" y="274.5" width="34" height="55.1667" stroke="#313131"/>
<rect x="102.5" y="274.5" width="34" height="55.1667" stroke="#313131"/>
<rect x="136.5" y="274.5" width="34" height="55.1667" stroke="#313131"/>
<rect x="170.5" y="274.5" width="34" height="55.1667" stroke="#313131"/>
<rect x="204.5" y="274.5" width="34" height="55.1667" stroke="#313131"/>
<rect x="238.5" y="274.5" width="34" height="55.1667" stroke="#313131"/>
<rect x="272.5" y="274.5" width="34" height="55.1667" stroke="#313131"/>
<rect x="306.5" y="274.5" width="34" height="55.1667" stroke="#313131"/>
<rect x="340.5" y="274.5" width="34" height="55.1667" stroke="#313131"/>
<rect x="0.5" y="329.5" width="34" height="55.1667" stroke="#313131"/>
<rect x="34.5" y="329.5" width="34" height="55.1667" stroke="#313131"/>
<rect x="68.5" y="329.5" width="34" height="55.1667" stroke="#313131"/>
<rect x="102.5" y="329.5" width="34" height="55.1667" stroke="#313131"/>
<rect x="136.5" y="329.5" width="34" height="55.1667" stroke="#313131"/>
<rect x="170.5" y="329.5" width="34" height="55.1667" stroke="#313131"/>
<rect x="204.5" y="329.5" width="34" height="55.1667" stroke="#313131"/>
<rect x="238.5" y="329.5" width="34" height="55.1667" stroke="#313131"/>
<rect x="272.5" y="329.5" width="34" height="55.1667" stroke="#313131"/>
<rect x="306.5" y="329.5" width="34" height="55.1667" stroke="#313131"/>
<rect x="340.5" y="329.5" width="34" height="55.1667" stroke="#313131"/>
<rect x="0.5" y="384.5" width="34" height="55.1667" stroke="#313131"/>
<rect x="34.5" y="384.5" width="34" height="55.1667" stroke="#313131"/>
<rect x="68.5" y="384.5" width="34" height="55.1667" stroke="#313131"/>
<rect x="102.5" y="384.5" width="34" height="55.1667" stroke="#313131"/>
<rect x="136.5" y="384.5" width="34" height="55.1667" stroke="#313131"/>
<rect x="170.5" y="384.5" width="34" height="55.1667" stroke="#313131"/>
<rect x="204.5" y="384.5" width="34" height="55.1667" stroke="#313131"/>
<rect x="238.5" y="384.5" width="34" height="55.1667" stroke="#313131"/>
<rect x="272.5" y="384.5" width="34" height="55.1667" stroke="#313131"/>
<rect x="306.5" y="384.5" width="34" height="55.1667" stroke="#313131"/>
<rect x="340.5" y="384.5" width="34" height="55.1667" stroke="#313131"/>
<rect x="0.5" y="439.5" width="34" height="55.1667" stroke="#313131"/>
<rect x="34.5" y="439.5" width="34" height="55.1667" stroke="#313131"/>
<rect x="68.5" y="439.5" width="34" height="55.1667" stroke="#313131"/>
<rect x="102.5" y="439.5" width="34" height="55.1667" stroke="#313131"/>
<rect x="136.5" y="439.5" width="34" height="55.1667" stroke="#313131"/>
<rect x="170.5" y="439.5" width="34" height="55.1667" stroke="#313131"/>
<rect x="204.5" y="439.5" width="34" height="55.1667" stroke="#313131"/>
<rect x="238.5" y="439.5" width="34" height="55.1667" stroke="#313131"/>
<rect x="272.5" y="439.5" width="34" height="55.1667" stroke="#313131"/>
<rect x="306.5" y="439.5" width="34" height="55.1667" stroke="#313131"/>
<rect x="340.5" y="439.5" width="34" height="55.1667" stroke="#313131"/>
<rect x="0.5" y="494.5" width="34" height="55.1667" stroke="#313131"/>
<rect x="34.5" y="494.5" width="34" height="55.1667" stroke="#313131"/>
<rect x="68.5" y="494.5" width="34" height="55.1667" stroke="#313131"/>
<rect x="102.5" y="494.5" width="34" height="55.1667" stroke="#313131"/>
<rect x="136.5" y="494.5" width="34" height="55.1667" stroke="#313131"/>
<rect x="170.5" y="494.5" width="34" height="55.1667" stroke="#313131"/>
<rect x="204.5" y="494.5" width="34" height="55.1667" stroke="#313131"/>
<rect x="238.5" y="494.5" width="34" height="55.1667" stroke="#313131"/>
<rect x="272.5" y="494.5" width="34" height="55.1667" stroke="#313131"/>
<rect x="306.5" y="494.5" width="34" height="55.1667" stroke="#313131"/>
<rect x="340.5" y="494.5" width="34" height="55.1667" stroke="#313131"/>
<rect x="0.5" y="549.5" width="34" height="55.1667" stroke="#313131"/>
<rect x="34.5" y="549.5" width="34" height="55.1667" stroke="#313131"/>
<rect x="68.5" y="549.5" width="34" height="55.1667" stroke="#313131"/>
<rect x="102.5" y="549.5" width="34" height="55.1667" stroke="#313131"/>
<rect x="136.5" y="549.5" width="34" height="55.1667" stroke="#313131"/>
<rect x="170.5" y="549.5" width="34" height="55.1667" stroke="#313131"/>
<rect x="204.5" y="549.5" width="34" height="55.1667" stroke="#313131"/>
<rect x="238.5" y="549.5" width="34" height="55.1667" stroke="#313131"/>
<rect x="272.5" y="549.5" width="34" height="55.1667" stroke="#313131"/>
<rect x="306.5" y="549.5" width="34" height="55.1667" stroke="#313131"/>
<rect x="340.5" y="549.5" width="34" height="55.1667" stroke="#313131"/>
<rect x="0.5" y="604.5" width="34" height="55.1667" stroke="#313131"/>
<rect x="34.5" y="604.5" width="34" height="55.1667" stroke="#313131"/>
<rect x="68.5" y="604.5" width="34" height="55.1667" stroke="#313131"/>
<rect x="102.5" y="604.5" width="34" height="55.1667" stroke="#313131"/>
<rect x="136.5" y="604.5" width="34" height="55.1667" stroke="#313131"/>
<rect x="170.5" y="604.5" width="34" height="55.1667" stroke="#313131"/>
<rect x="204.5" y="604.5" width="34" height="55.1667" stroke="#313131"/>
<rect x="238.5" y="604.5" width="34" height="55.1667" stroke="#313131"/>
<rect x="272.5" y="604.5" width="34" height="55.1667" stroke="#313131"/>
<rect x="306.5" y="604.5" width="34" height="55.1667" stroke="#313131"/>
<rect x="340.5" y="604.5" width="34" height="55.1667" stroke="#313131"/>
</g>
<defs>
<radialGradient id="paint0_radial" cx="0" cy="0" r="1" gradientUnits="userSpaceOnUse" gradientTransform="translate(187.5 330) rotate(90) scale(358 203.409)">
<stop/>
<stop offset="1" stop-opacity="0"/>
</radialGradient>
</defs>
</svg>
